<?xml version="1.0" encoding="UTF-8" standalone="no"?>
<!-- Created with Inkscape (http://www.inkscape.org/) -->

<svg
   width="300mm"
   height="400mm"
   viewBox="0 0 300 400"
   version="1.1"
   id="svg5"
   inkscape:version="1.2.2 (732a01da63, 2022-12-09)"
   sodipodi:docname="backing_16x16.svg"
   xmlns:inkscape="http://www.inkscape.org/namespaces/inkscape"
   xmlns:sodipodi="http://sodipodi.sourceforge.net/DTD/sodipodi-0.dtd"
   xmlns="http://www.w3.org/2000/svg"
   xmlns:svg="http://www.w3.org/2000/svg">
  <sodipodi:namedview
     id="namedview7"
     pagecolor="#ffffff"
     bordercolor="#000000"
     borderopacity="0.25"
     inkscape:showpageshadow="2"
     inkscape:pageopacity="0.0"
     inkscape:pagecheckerboard="0"
     inkscape:deskcolor="#d1d1d1"
     inkscape:document-units="mm"
     showgrid="false"
     inkscape:zoom="1.2938725"
     inkscape:cx="413.87386"
     inkscape:cy="426.62628"
     inkscape:window-width="2560"
     inkscape:window-height="1377"
     inkscape:window-x="2552"
     inkscape:window-y="-8"
     inkscape:window-maximized="1"
     inkscape:current-layer="g7710" />
  <defs
     id="defs2" />
  <g
     inkscape:label="Layer 1"
     inkscape:groupmode="layer"
     id="layer1">
    <rect
       style="fill:none;fill-opacity:1;stroke:#000000;stroke-width:0.1;stroke-dasharray:none;stroke-opacity:1"
       id="rect223"
       width="169"
       height="169"
       x="10"
       y="10" />
    <g
       id="g7710"
       transform="translate(0.63413933,-80.000006)">
      <text
         xml:space="preserve"
         style="font-style:normal;font-variant:normal;font-weight:bold;font-stretch:normal;font-size:4.58611px;font-family:Arial;-inkscape-font-specification:'Arial Bold';fill:none;fill-opacity:1;stroke:#000000;stroke-width:0.1;stroke-dasharray:none;stroke-opacity:1"
         x="118.96172"
         y="-36.43042"
         id="text5275"
         transform="rotate(90)"><tspan
           sodipodi:role="line"
           style="font-size:4.58611px;fill:#ff0000;stroke:none;stroke-width:0.1"
           x="118.96172"
           y="-36.43042"
           id="tspan7625">16x16 FFT Spectrum Analyser</tspan><tspan
           sodipodi:role="line"
           style="font-size:4.58611px;fill:#ff0000;stroke:none;stroke-width:0.1"
           x="118.96172"
           y="-30.697783"
           id="tspan6053">Created by Isaac Pawley</tspan><tspan
           sodipodi:role="line"
           style="font-size:4.58611px;fill:#ff0000;stroke:none;stroke-width:0.1"
           x="118.96172"
           y="-24.965145"
           id="tspan6055">https://github.com/i-Saac-IV/FFTSpectrumAnalyser</tspan></text>
      <path
         style="fill:#ff0000;stroke-width:0.192577"
         d="m 66.287806,119.32672 h 13.28781 v 13.2878 13.2878 H 66.287806 53.000001 v -13.2878 -13.28781 z m 0.0014,22.72407 h 9.630668 l -0.04993,-9.48442 -0.04985,-9.48441 -9.580701,-0.0499 -9.5807,-0.0499 v 9.53435 9.53436 h 9.630885 z m -0.0014,-15.21357 h 5.777307 v 5.681 5.68102 h -5.777307 -5.777307 v -5.68102 -5.68101 z m -9.532552,22.91663 h 3.755245 v 1.92579 1.92576 h 1.925773 1.925768 v -1.92576 -1.92579 h 1.925766 1.925773 v 1.92579 1.92576 h 1.925768 1.925766 v 1.92577 1.92577 h 1.925773 1.925767 v -3.85154 -3.85155 h 5.681015 5.681024 v -1.92576 -1.92577 H 85.35292 83.427148 v -1.92577 -1.92576 h 1.925772 1.925772 v -1.92578 -1.92577 H 85.35292 83.427148 v -3.75525 -3.75525 h 3.851544 3.851533 v -1.92575 -1.92577 h 1.925772 1.925767 v -1.92578 -1.92576 h -1.925767 -1.925772 v -1.92577 -1.92577 h 1.925772 1.925767 v 1.92577 1.92577 h 1.92576 1.92577 v -1.92577 -1.92577 h 1.829476 1.82948 v 5.7773 5.7773 h -1.82948 -1.829476 v 1.92579 1.92575 h 3.755246 3.75524 v 3.75525 3.75526 h 1.92578 1.92577 v 5.7773 5.77731 h 1.92576 1.92578 v 3.75525 3.75524 h -1.92578 -1.92576 v 1.92576 1.92578 h -1.92577 -1.92578 v 1.92576 1.92578 h 1.92578 1.92577 v 3.85153 3.85154 h 1.92576 1.92578 v -3.85154 -3.85153 h 1.92576 1.92577 v -3.85154 -3.85154 h 1.92578 1.92577 v -5.68101 -5.68103 h -3.85155 -3.85153 v -3.85153 -3.85153 h 1.92576 1.92577 v -1.92578 -1.92577 h -1.92577 -1.92576 v -1.82948 -1.82948 h -1.92578 -1.92576 v -1.92575 -1.92579 h -1.92577 -1.92578 v -1.92575 -1.92577 h 1.92578 1.92577 v -1.92578 -1.92576 h 1.92576 1.92578 v 1.92576 1.92578 h 3.85153 3.85155 v 1.92577 1.92575 h 1.82948 1.82948 v -3.85152 -3.85154 h 1.92577 1.92577 v -1.92577 -1.92577 h 1.92577 1.92577 v 3.85154 3.85154 h -1.92577 -1.92577 v 1.92577 1.92575 h 1.92577 1.92577 v 1.92579 1.92575 h -1.92577 -1.92577 v 1.82948 1.82948 h -1.92577 -1.92577 v 3.85155 3.85153 h -1.82948 -1.82948 v 1.92577 1.92576 h 1.82948 1.82948 v 3.85155 3.85154 h 3.85154 3.85154 v -3.85154 -3.85155 h -1.92577 -1.92577 v -3.85153 -3.85153 h 1.92577 1.92577 v 3.85153 3.85153 h 7.60679 7.60678 v 1.92579 1.92576 h 1.92576 1.92579 v -1.92576 -1.92579 h 3.85153 3.85153 v 1.92579 1.92576 h 1.92578 1.92577 v 3.75525 3.75524 h -1.92577 -1.92578 v 1.92576 1.92578 h 1.92578 1.92577 v 1.92576 1.92578 h -1.92577 -1.92578 v 13.3841 13.3841 h -3.85153 -3.85153 v 1.92577 1.92577 h -11.45833 -11.45833 v 1.92576 1.92577 h 1.92577 1.92577 v 5.68101 5.68103 h -1.92577 -1.92577 v -5.68103 -5.68101 h -3.75525 -3.75525 v 1.82948 1.82948 h 1.82948 1.82948 v 1.92577 1.92578 h -3.75524 -3.75527 v 1.92577 1.92576 h -1.92577 -1.92576 v 1.92577 1.92577 h 3.85153 3.85155 v 1.92576 1.92577 h 3.75525 3.75525 v -1.92577 -1.92576 h 1.92577 1.92577 v 3.85153 3.85154 h -5.68102 -5.68102 v 1.82948 1.82949 h -5.77732 -5.7773 v -3.75525 -3.75526 h -1.92577 -1.92578 v 3.75526 3.75525 h -1.92576 -1.92577 v -1.82949 -1.82948 h -3.755246 -3.75524 v 1.82948 1.82949 h -1.925767 -1.925772 v -1.82949 -1.82948 h 1.925772 1.925767 v -3.85154 -3.85153 h -1.925767 -1.925772 v -1.92577 -1.92577 h 1.925772 1.925767 v 1.92577 1.92577 h 1.92576 1.92577 v -1.92577 -1.92577 h 5.681006 5.68103 v -1.92576 -1.92577 h -1.92577 -1.92578 v -1.92578 -1.92577 h -1.92576 -1.92577 v 1.92577 1.92578 h -3.755246 -3.75524 v -1.92578 -1.92577 h -1.925767 -1.925772 v -1.82948 -1.82948 h -1.925772 -1.925761 v 9.53256 9.53255 H 85.35292 83.427148 v 1.92578 1.92576 h 1.925772 1.925772 v 1.82948 1.82949 H 85.35292 83.427148 v -1.82949 -1.82948 h -3.755252 -3.755243 v 1.82948 1.82949 h -1.925766 -1.925774 v -3.75525 -3.75526 h 5.681023 5.681012 v -1.92577 -1.92576 h -1.925761 -1.925771 v -1.92577 -1.92577 h -1.82948 -1.829483 v 1.92577 1.92577 h -1.925766 -1.925774 v -1.92577 -1.92577 H 68.21358 64.36204 v -1.92576 -1.92577 h 1.925766 1.925773 v -1.92578 -1.92577 H 66.287806 64.36204 v -5.68101 -5.68102 h -1.925767 -1.925774 v 3.85154 3.85153 h -1.925766 -1.925766 v 1.82948 1.82948 h 1.925766 1.925766 v 3.85155 3.85153 h -3.755245 -3.755253 v -1.92576 -1.92577 h 1.829487 1.829479 v -1.92578 -1.92577 h -1.829479 -1.829487 v -1.82948 -1.82948 h 1.829487 1.829479 v -7.70307 -7.70309 h -1.829479 -1.829487 v -1.92577 -1.92576 h 3.755253 3.755245 v -7.60679 -7.60679 h -3.755245 -3.755253 v -1.92578 -1.92576 h 3.755253 3.755245 v -1.92578 -1.92576 h -1.925766 -1.925766 v -1.82947 -1.82948 h -1.829479 -1.829487 v -3.85154 -3.85155 z m 1.829479,7.70309 h 1.925766 v 1.82948 1.82947 h 1.925773 1.925768 v -1.82947 -1.82948 h 1.925766 1.925773 v -1.92577 -1.92577 H 66.287806 64.36204 v 1.92577 1.92577 h -1.925768 -1.925773 v -1.92577 -1.92577 h -1.925766 -1.925766 v 1.92577 1.92577 z m 3.85154,34.27867 h 1.925767 v 1.92579 1.92577 h 3.85154 3.851533 v -1.92577 -1.92579 h 1.925774 1.925766 v 1.92579 1.92577 h 5.681015 5.681024 v -1.92577 -1.92579 h 1.925761 1.925772 v -5.68101 -5.68102 h 3.851539 3.85153 v 1.82949 1.82948 h -1.92577 -1.92576 v 1.92576 1.92577 h 1.92576 1.92577 v -1.92577 -1.92576 h 1.829476 1.82948 v -5.68103 -5.68101 h -7.606776 -7.606782 v -1.92576 -1.92577 H 85.35292 83.427148 v 1.92577 1.92576 h 1.925772 1.925772 v 1.92577 1.92577 h -3.851544 -3.851532 v -1.92577 -1.92577 h -1.82948 -1.829483 v 7.60677 7.6068 h -1.925767 -1.925773 v -5.68101 -5.68102 H 68.213579 64.36204 v 3.75523 3.75527 h 1.925766 1.925773 v 1.92576 1.92577 h 1.925768 1.925766 v 1.92577 1.92576 H 68.213579 64.36204 v -1.92576 -1.92577 h -1.925768 -1.925773 v 1.92577 1.92576 z m 20.990875,-11.36204 h 3.851544 v -1.92576 -1.92577 h 1.925761 1.925772 v 1.92577 1.92576 h -1.925772 -1.925761 v 3.75526 3.75525 H 85.35292 83.427148 v 1.92577 1.92576 h -1.925761 -1.925771 v -5.68101 -5.68103 z M 68.21358,172.6705 h 3.851533 v -5.77731 -5.7773 H 70.139347 68.21358 v 1.92576 1.92578 H 66.287806 64.36204 v 3.85154 3.85153 z m 9.532556,38.13025 h 5.681012 v -5.68103 -5.68101 h -5.681012 -5.681023 v 5.68101 5.68103 z m 0,-7.51051 h 1.82948 v 1.82948 1.82948 h -1.82948 -1.829483 v -1.82948 -1.82948 z m 3.851532,-42.17435 h 5.681024 v 1.92576 1.92578 h 1.925761 1.925772 v 1.92576 1.92578 h 5.681019 5.681006 v -1.92578 -1.92576 h 1.92577 1.92576 v -1.92578 -1.92576 h 1.92578 1.92577 v -3.75524 -3.75525 h -1.92577 -1.92578 v -1.92576 -1.92579 h -1.92576 -1.92577 v 1.92579 1.92576 h -1.82948 -1.829476 v 1.92577 1.92577 h -1.92577 -1.92576 v 3.75524 3.75525 h -1.925778 -1.925761 v -3.75525 -3.75524 h -3.851533 -3.851544 v -1.92577 -1.92577 h -1.925761 -1.925771 v 1.92577 1.92577 h -1.82948 -1.829483 v 1.82948 1.82947 z m 22.820352,-3.65895 h 1.92576 v 1.82948 1.82947 h -1.92576 -1.92577 v -1.82947 -1.82948 z m -11.362034,-19.2577 h 5.777308 v 1.92577 1.92578 h -1.92577 -1.92576 v 3.85153 3.85153 h -3.851539 -3.851533 v 1.92579 1.92576 h 3.851533 3.851539 v -1.92576 -1.92579 h 1.92576 1.92577 v -3.85153 -3.85153 h 1.829476 1.82948 v 1.92576 1.92577 h 1.92577 1.92576 v -1.92577 -1.92576 h -1.92576 -1.92577 v -1.92578 -1.92577 h -1.82948 -1.829476 v -1.82948 -1.82948 h -5.777308 -5.777294 v 1.82948 1.82948 z m -3.851533,7.70308 h 1.925772 v -1.92577 -1.92576 h -1.925772 -1.925761 v 1.92576 1.92577 z m 7.703071,-15.21358 h 1.92577 v -1.92576 -1.92576 h -1.92577 -1.92576 v 1.92576 1.92576 z m 1.82948,76.26046 h 3.755246 v -1.82948 -1.82948 h 1.92577 1.92576 v -1.92577 -1.92576 h 1.92578 1.92577 v -1.92577 -1.92577 h 1.92576 1.92578 v 5.68102 5.68101 h 1.92576 1.92577 v -5.68101 -5.68102 h 7.6068 7.60679 v -1.92577 -1.92579 h 1.92577 1.92577 v 1.92579 1.92577 h 3.85153 3.85154 v -1.92577 -1.92579 h 5.68103 5.68101 v -1.92576 -1.92577 h -1.92577 -1.92576 v -1.92577 -1.92576 h 1.92576 1.92577 v -1.82948 -1.82949 h -3.85153 -3.85155 v -1.92576 -1.92577 h 3.85155 3.85153 v -3.85154 -3.85153 h 1.92577 1.92576 v -1.92578 -1.92576 h -1.92576 -1.92577 v 1.92576 1.92578 h -1.92577 -1.92576 v -1.92578 -1.92576 h -1.92579 -1.92576 v 3.85154 3.85153 h -1.82948 -1.82948 v -1.92576 -1.92577 h -5.7773 -5.77731 v -1.92578 -1.92576 h 5.77731 5.7773 v -1.92578 -1.92576 h 1.82948 1.82948 v -3.75524 -3.75525 h -1.82948 -1.82948 v 1.92577 1.92577 h -1.92576 -1.92578 v -1.92577 -1.92577 h -1.92576 -1.92577 v 1.92577 1.92577 h -1.92577 -1.92577 v 3.75524 3.75525 h -1.92577 -1.92577 v 3.85154 3.85153 h -1.92577 -1.92577 v -1.92576 -1.92577 h -1.82948 -1.82948 v 1.92577 1.92576 h -1.92577 -1.92578 v 1.92577 1.92577 h -1.92577 -1.92576 v 1.92577 1.92576 h -1.92578 -1.92576 v -1.92576 -1.92577 h -1.92577 -1.92578 v 5.68102 5.68101 h -1.92576 -1.92577 v 3.85153 3.85156 h -1.82948 -1.829476 v -1.92577 -1.92579 h -1.92577 -1.92576 v 7.60681 7.60678 z m 1.925766,-7.51049 h 1.82948 v -1.92577 -1.92577 h 1.92577 1.92576 v -1.92577 -1.92579 h 1.92578 1.92577 v -3.85153 -3.85153 h 1.92576 1.92578 v -1.82948 -1.8295 h 1.92576 1.92577 v -1.92576 -1.92577 h 1.92578 1.92577 v 1.92577 1.92576 h 1.82948 1.82948 v 1.8295 1.82948 h 5.77731 5.77731 v -1.82948 -1.8295 h 1.92577 1.92576 v -1.92576 -1.92577 h -5.7773 -5.77731 v -1.92577 -1.92577 h 5.77731 5.7773 v 1.92577 1.92577 h 1.92578 1.92576 v 7.60679 7.60678 h -3.85154 -3.85153 v -1.92576 -1.92577 h -1.92577 -1.92577 v 1.92577 1.92576 h -3.85154 -3.85154 v -1.92576 -1.92577 h -1.82948 -1.82948 v -1.92577 -1.92576 h -3.85155 -3.85153 v 1.92576 1.92577 h 1.92576 1.92577 v 1.92577 1.92576 h -3.85153 -3.85154 v 1.92579 1.92577 h -1.92577 -1.92578 v 1.92577 1.92577 h -1.92576 -1.92577 v 1.92576 1.92577 h -1.82948 -1.829476 v -1.92577 -1.92576 z m 38.22653,-11.55463 h 1.92576 v -1.92577 -1.92576 h -1.92576 -1.92577 v 1.92576 1.92577 z m 0,-30.42714 h 1.92576 v 1.82948 1.82947 h -1.92576 -1.92577 v -1.82947 -1.82948 z m -34.47128,64.89841 h 1.92576 v -1.92577 -1.92576 h -1.92576 -1.92577 v 1.92576 1.92577 z m 7.70307,0 h 1.92578 v -1.92577 -1.92576 h -1.92578 -1.92576 v 1.92576 1.92577 z m 5.77731,-87.81507 h 3.85155 v -1.92576 -1.92578 h -3.85155 -3.85153 v 1.92578 1.92576 z m 1.92578,11.36204 h 1.92577 v -1.92577 -1.92576 h -1.92577 -1.92578 v 1.92576 1.92577 z m 0,80.30457 h 1.92577 v -1.92576 -1.92578 h -1.92577 -1.92578 v 1.92578 1.92576 z m 3.75525,-61.23946 h 1.82948 v -1.92578 -1.92576 h -1.82948 -1.82948 v 1.92576 1.92578 z m 34.37498,-3.85154 h 1.92576 v -3.75524 -3.75525 h -1.92576 -1.92577 v 3.75525 3.75524 z M 54.829487,222.35535 h 1.829478 v -1.92577 -1.92576 h 3.851534 3.851541 v 1.92576 1.92577 h -3.851541 -3.851534 v 1.92578 1.92576 h 5.777307 5.777307 v 1.82948 1.82949 h -5.777307 -5.777307 v -1.82949 -1.82948 H 54.829487 53 v -1.92576 -1.92578 z M 85.35292,119.13414 h 1.925772 v 1.92577 1.92577 H 85.35292 83.427148 v -1.92577 -1.92577 z m 64.99471,0.19258 h 13.38409 v 13.2878 13.2878 h -13.38409 -13.3841 v -13.2878 -13.28781 z m 0,22.72407 h 9.53254 v -9.53257 -9.53254 h -9.53254 -9.53257 v 9.53254 9.53257 z m 0,-15.21357 h 5.68101 v 5.681 5.68102 h -5.68101 -5.68103 v -5.68102 -5.68101 z m 0,76.45302 h 13.38409 v 13.28781 13.28781 h -13.38409 -13.3841 v -13.28781 -13.28781 z m 0,22.91665 h 9.53254 v -9.53255 -9.53257 h -9.53254 -9.53257 v 9.53257 9.53255 z m 0,-15.40614 h 5.68101 v 5.7773 5.7773 h -5.68101 -5.68103 v -5.7773 -5.7773 z"
         id="path7521" />
    </g>
  </g>
</svg>
