<?xml version="1.0" encoding="UTF-8" standalone="no"?>
<!-- Created with Inkscape (http://www.inkscape.org/) -->

<svg
   width="300mm"
   height="400mm"
   viewBox="0 0 300 400"
   version="1.1"
   id="svg5"
   inkscape:version="1.2.2 (732a01da63, 2022-12-09)"
   sodipodi:docname="backing_32x16.svg"
   xml:space="preserve"
   xmlns:inkscape="http://www.inkscape.org/namespaces/inkscape"
   xmlns:sodipodi="http://sodipodi.sourceforge.net/DTD/sodipodi-0.dtd"
   xmlns="http://www.w3.org/2000/svg"
   xmlns:svg="http://www.w3.org/2000/svg"><sodipodi:namedview
     id="namedview7"
     pagecolor="#ffffff"
     bordercolor="#000000"
     borderopacity="0.25"
     inkscape:showpageshadow="2"
     inkscape:pageopacity="0.0"
     inkscape:pagecheckerboard="0"
     inkscape:deskcolor="#d1d1d1"
     inkscape:document-units="mm"
     showgrid="false"
     inkscape:zoom="0.914906"
     inkscape:cx="390.75053"
     inkscape:cy="636.13093"
     inkscape:window-width="2560"
     inkscape:window-height="1377"
     inkscape:window-x="2552"
     inkscape:window-y="-8"
     inkscape:window-maximized="1"
     inkscape:current-layer="layer1"
     showguides="false"><sodipodi:guide
       position="37.603836,170.13413"
       orientation="0,-1"
       id="guide7641"
       inkscape:locked="false" /><sodipodi:guide
       position="37.603836,280.86585"
       orientation="0,-1"
       id="guide7643"
       inkscape:locked="false" /><sodipodi:guide
       position="150.34763,280.67328"
       orientation="1,0"
       id="guide7870"
       inkscape:locked="false" /><sodipodi:guide
       position="113.28718,335.5"
       orientation="0,1"
       id="guide7872"
       inkscape:locked="false"
       inkscape:label=""
       inkscape:color="rgb(0,134,229)" /><sodipodi:guide
       position="170.41551,115.63412"
       orientation="0,1"
       id="guide7874"
       inkscape:label=""
       inkscape:locked="false"
       inkscape:color="rgb(0,134,229)" /><sodipodi:guide
       position="136.96353,267.38548"
       orientation="1,0"
       id="guide7964"
       inkscape:locked="false" /><sodipodi:guide
       position="24.000001,225.49999"
       orientation="1,0"
       id="guide7966"
       inkscape:locked="false" /><sodipodi:guide
       position="163.73172,225.5"
       orientation="1,0"
       id="guide7968"
       inkscape:locked="false" /><sodipodi:guide
       position="24.000001,376"
       orientation="0,1"
       id="guide7970"
       inkscape:locked="false"
       inkscape:label=""
       inkscape:color="rgb(0,134,229)" /><sodipodi:guide
       position="76.635832,74.999999"
       orientation="0,1"
       id="guide7972"
       inkscape:locked="false"
       inkscape:label=""
       inkscape:color="rgb(0,134,229)" /><sodipodi:guide
       position="24.000001,156.13413"
       orientation="0,1"
       id="guide7974"
       inkscape:locked="false"
       inkscape:label=""
       inkscape:color="rgb(0,134,229)" /><sodipodi:guide
       position="24.000001,294.86585"
       orientation="0,1"
       id="guide7976"
       inkscape:locked="false"
       inkscape:label=""
       inkscape:color="rgb(0,134,229)" /></sodipodi:namedview><defs
     id="defs2" /><g
     inkscape:label="Layer 1"
     inkscape:groupmode="layer"
     id="layer1"><rect
       style="fill:none;fill-opacity:1;stroke:#000000;stroke-width:0.1;stroke-dasharray:none;stroke-opacity:1"
       id="rect223"
       width="169"
       height="329"
       x="10"
       y="10" /><g
       id="g7710"><text
         xml:space="preserve"
         style="font-style:normal;font-variant:normal;font-weight:bold;font-stretch:normal;font-size:4.58611px;font-family:Arial;-inkscape-font-specification:'Arial Bold';fill:none;fill-opacity:1;stroke:#000000;stroke-width:0.1;stroke-dasharray:none;stroke-opacity:1"
         x="118.96172"
         y="-36.43042"
         id="text5275"
         transform="rotate(90)"><tspan
           sodipodi:role="line"
           style="font-size:4.58611px;fill:#ff0000;stroke:none;stroke-width:0.1"
           x="118.96172"
           y="-36.43042"
           id="tspan7625">32x16 FFT Spectrum Analyser</tspan><tspan
           sodipodi:role="line"
           style="font-size:4.58611px;fill:#ff0000;stroke:none;stroke-width:0.1"
           x="118.96172"
           y="-30.697781"
           id="tspan6053">Created by Isaac Pawley</tspan><tspan
           sodipodi:role="line"
           style="font-size:4.58611px;fill:#ff0000;stroke:none;stroke-width:0.1"
           x="118.96172"
           y="-24.965143"
           id="tspan6055">https://github.com/i-Saac-IV/FFTSpectrumAnalyser</tspan></text><path
         style="fill:#ff0000;stroke-width:0.192577"
         d="m 66.287806,119.32672 h 13.28781 v 13.2878 13.2878 H 66.287806 53.000001 v -13.2878 -13.28781 z m 0.0014,22.72407 h 9.630668 l -0.04993,-9.48442 -0.04985,-9.48441 -9.580701,-0.0499 -9.5807,-0.0499 v 9.53435 9.53436 h 9.630885 z m -0.0014,-15.21357 h 5.777307 v 5.681 5.68102 h -5.777307 -5.777307 v -5.68102 -5.68101 z m -9.532552,22.91663 h 3.755245 v 1.92579 1.92576 h 1.925773 1.925768 v -1.92576 -1.92579 h 1.925766 1.925773 v 1.92579 1.92576 h 1.925768 1.925766 v 1.92577 1.92577 h 1.925773 1.925767 v -3.85154 -3.85155 h 5.681015 5.681024 v -1.92576 -1.92577 H 85.35292 83.427148 v -1.92577 -1.92576 h 1.925772 1.925772 v -1.92578 -1.92577 H 85.35292 83.427148 v -3.75525 -3.75525 h 3.851544 3.851533 v -1.92575 -1.92577 h 1.925772 1.925767 v -1.92578 -1.92576 h -1.925767 -1.925772 v -1.92577 -1.92577 h 1.925772 1.925767 v 1.92577 1.92577 h 1.92576 1.92577 v -1.92577 -1.92577 h 1.829476 1.82948 v 5.7773 5.7773 h -1.82948 -1.829476 v 1.92579 1.92575 h 3.755246 3.75524 v 3.75525 3.75526 h 1.92578 1.92577 v 5.7773 5.77731 h 1.92576 1.92578 v 3.75525 3.75524 h -1.92578 -1.92576 v 1.92576 1.92578 h -1.92577 -1.92578 v 1.92576 1.92578 h 1.92578 1.92577 v 3.85153 3.85154 h 1.92576 1.92578 v -3.85154 -3.85153 h 1.92576 1.92577 v -3.85154 -3.85154 h 1.92578 1.92577 v -5.68101 -5.68103 h -3.85155 -3.85153 v -3.85153 -3.85153 h 1.92576 1.92577 v -1.92578 -1.92577 h -1.92577 -1.92576 v -1.82948 -1.82948 h -1.92578 -1.92576 v -1.92575 -1.92579 h -1.92577 -1.92578 v -1.92575 -1.92577 h 1.92578 1.92577 v -1.92578 -1.92576 h 1.92576 1.92578 v 1.92576 1.92578 h 3.85153 3.85155 v 1.92577 1.92575 h 1.82948 1.82948 v -3.85152 -3.85154 h 1.92577 1.92577 v -1.92577 -1.92577 h 1.92577 1.92577 v 3.85154 3.85154 h -1.92577 -1.92577 v 1.92577 1.92575 h 1.92577 1.92577 v 1.92579 1.92575 h -1.92577 -1.92577 v 1.82948 1.82948 h -1.92577 -1.92577 v 3.85155 3.85153 h -1.82948 -1.82948 v 1.92577 1.92576 h 1.82948 1.82948 v 3.85155 3.85154 h 3.85154 3.85154 v -3.85154 -3.85155 h -1.92577 -1.92577 v -3.85153 -3.85153 h 1.92577 1.92577 v 3.85153 3.85153 h 7.60679 7.60678 v 1.92579 1.92576 h 1.92576 1.92579 v -1.92576 -1.92579 h 3.85153 3.85153 v 1.92579 1.92576 h 1.92578 1.92577 v 3.75525 3.75524 h -1.92577 -1.92578 v 1.92576 1.92578 h 1.92578 1.92577 v 1.92576 1.92578 h -1.92577 -1.92578 v 13.3841 13.3841 h -3.85153 -3.85153 v 1.92577 1.92577 h -11.45833 -11.45833 v 1.92576 1.92577 h 1.92577 1.92577 v 5.68101 5.68103 h -1.92577 -1.92577 v -5.68103 -5.68101 h -3.75525 -3.75525 v 1.82948 1.82948 h 1.82948 1.82948 v 1.92577 1.92578 h -3.75524 -3.75527 v 1.92577 1.92576 h -1.92577 -1.92576 v 1.92577 1.92577 h 3.85153 3.85155 v 1.92576 1.92577 h 3.75525 3.75525 v -1.92577 -1.92576 h 1.92577 1.92577 v 3.85153 3.85154 h -5.68102 -5.68102 v 1.82948 1.82949 h -5.77732 -5.7773 v -3.75525 -3.75526 h -1.92577 -1.92578 v 3.75526 3.75525 h -1.92576 -1.92577 v -1.82949 -1.82948 h -3.755246 -3.75524 v 1.82948 1.82949 h -1.925767 -1.925772 v -1.82949 -1.82948 h 1.925772 1.925767 v -3.85154 -3.85153 h -1.925767 -1.925772 v -1.92577 -1.92577 h 1.925772 1.925767 v 1.92577 1.92577 h 1.92576 1.92577 v -1.92577 -1.92577 h 5.681006 5.68103 v -1.92576 -1.92577 h -1.92577 -1.92578 v -1.92578 -1.92577 h -1.92576 -1.92577 v 1.92577 1.92578 h -3.755246 -3.75524 v -1.92578 -1.92577 h -1.925767 -1.925772 v -1.82948 -1.82948 h -1.925772 -1.925761 v 9.53256 9.53255 H 85.35292 83.427148 v 1.92578 1.92576 h 1.925772 1.925772 v 1.82948 1.82949 H 85.35292 83.427148 v -1.82949 -1.82948 h -3.755252 -3.755243 v 1.82948 1.82949 h -1.925766 -1.925774 v -3.75525 -3.75526 h 5.681023 5.681012 v -1.92577 -1.92576 h -1.925761 -1.925771 v -1.92577 -1.92577 h -1.82948 -1.829483 v 1.92577 1.92577 h -1.925766 -1.925774 v -1.92577 -1.92577 H 68.21358 64.36204 v -1.92576 -1.92577 h 1.925766 1.925773 v -1.92578 -1.92577 H 66.287806 64.36204 v -5.68101 -5.68102 h -1.925767 -1.925774 v 3.85154 3.85153 h -1.925766 -1.925766 v 1.82948 1.82948 h 1.925766 1.925766 v 3.85155 3.85153 h -3.755245 -3.755253 v -1.92576 -1.92577 h 1.829487 1.829479 v -1.92578 -1.92577 h -1.829479 -1.829487 v -1.82948 -1.82948 h 1.829487 1.829479 v -7.70307 -7.70309 h -1.829479 -1.829487 v -1.92577 -1.92576 h 3.755253 3.755245 v -7.60679 -7.60679 h -3.755245 -3.755253 v -1.92578 -1.92576 h 3.755253 3.755245 v -1.92578 -1.92576 h -1.925766 -1.925766 v -1.82947 -1.82948 h -1.829479 -1.829487 v -3.85154 -3.85155 z m 1.829479,7.70309 h 1.925766 v 1.82948 1.82947 h 1.925773 1.925768 v -1.82947 -1.82948 h 1.925766 1.925773 v -1.92577 -1.92577 H 66.287806 64.36204 v 1.92577 1.92577 h -1.925768 -1.925773 v -1.92577 -1.92577 h -1.925766 -1.925766 v 1.92577 1.92577 z m 3.85154,34.27867 h 1.925767 v 1.92579 1.92577 h 3.85154 3.851533 v -1.92577 -1.92579 h 1.925774 1.925766 v 1.92579 1.92577 h 5.681015 5.681024 v -1.92577 -1.92579 h 1.925761 1.925772 v -5.68101 -5.68102 h 3.851539 3.85153 v 1.82949 1.82948 h -1.92577 -1.92576 v 1.92576 1.92577 h 1.92576 1.92577 v -1.92577 -1.92576 h 1.829476 1.82948 v -5.68103 -5.68101 h -7.606776 -7.606782 v -1.92576 -1.92577 H 85.35292 83.427148 v 1.92577 1.92576 h 1.925772 1.925772 v 1.92577 1.92577 h -3.851544 -3.851532 v -1.92577 -1.92577 h -1.82948 -1.829483 v 7.60677 7.6068 h -1.925767 -1.925773 v -5.68101 -5.68102 H 68.213579 64.36204 v 3.75523 3.75527 h 1.925766 1.925773 v 1.92576 1.92577 h 1.925768 1.925766 v 1.92577 1.92576 H 68.213579 64.36204 v -1.92576 -1.92577 h -1.925768 -1.925773 v 1.92577 1.92576 z m 20.990875,-11.36204 h 3.851544 v -1.92576 -1.92577 h 1.925761 1.925772 v 1.92577 1.92576 h -1.925772 -1.925761 v 3.75526 3.75525 H 85.35292 83.427148 v 1.92577 1.92576 h -1.925761 -1.925771 v -5.68101 -5.68103 z M 68.21358,172.6705 h 3.851533 v -5.77731 -5.7773 H 70.139347 68.21358 v 1.92576 1.92578 H 66.287806 64.36204 v 3.85154 3.85153 z m 9.532556,38.13025 h 5.681012 v -5.68103 -5.68101 h -5.681012 -5.681023 v 5.68101 5.68103 z m 0,-7.51051 h 1.82948 v 1.82948 1.82948 h -1.82948 -1.829483 v -1.82948 -1.82948 z m 3.851532,-42.17435 h 5.681024 v 1.92576 1.92578 h 1.925761 1.925772 v 1.92576 1.92578 h 5.681019 5.681006 v -1.92578 -1.92576 h 1.92577 1.92576 v -1.92578 -1.92576 h 1.92578 1.92577 v -3.75524 -3.75525 h -1.92577 -1.92578 v -1.92576 -1.92579 h -1.92576 -1.92577 v 1.92579 1.92576 h -1.82948 -1.829476 v 1.92577 1.92577 h -1.92577 -1.92576 v 3.75524 3.75525 h -1.925778 -1.925761 v -3.75525 -3.75524 h -3.851533 -3.851544 v -1.92577 -1.92577 h -1.925761 -1.925771 v 1.92577 1.92577 h -1.82948 -1.829483 v 1.82948 1.82947 z m 22.820352,-3.65895 h 1.92576 v 1.82948 1.82947 h -1.92576 -1.92577 v -1.82947 -1.82948 z m -11.362034,-19.2577 h 5.777308 v 1.92577 1.92578 h -1.92577 -1.92576 v 3.85153 3.85153 h -3.851539 -3.851533 v 1.92579 1.92576 h 3.851533 3.851539 v -1.92576 -1.92579 h 1.92576 1.92577 v -3.85153 -3.85153 h 1.829476 1.82948 v 1.92576 1.92577 h 1.92577 1.92576 v -1.92577 -1.92576 h -1.92576 -1.92577 v -1.92578 -1.92577 h -1.82948 -1.829476 v -1.82948 -1.82948 h -5.777308 -5.777294 v 1.82948 1.82948 z m -3.851533,7.70308 h 1.925772 v -1.92577 -1.92576 h -1.925772 -1.925761 v 1.92576 1.92577 z m 7.703071,-15.21358 h 1.92577 v -1.92576 -1.92576 h -1.92577 -1.92576 v 1.92576 1.92576 z m 1.82948,76.26046 h 3.755246 v -1.82948 -1.82948 h 1.92577 1.92576 v -1.92577 -1.92576 h 1.92578 1.92577 v -1.92577 -1.92577 h 1.92576 1.92578 v 5.68102 5.68101 h 1.92576 1.92577 v -5.68101 -5.68102 h 7.6068 7.60679 v -1.92577 -1.92579 h 1.92577 1.92577 v 1.92579 1.92577 h 3.85153 3.85154 v -1.92577 -1.92579 h 5.68103 5.68101 v -1.92576 -1.92577 h -1.92577 -1.92576 v -1.92577 -1.92576 h 1.92576 1.92577 v -1.82948 -1.82949 h -3.85153 -3.85155 v -1.92576 -1.92577 h 3.85155 3.85153 v -3.85154 -3.85153 h 1.92577 1.92576 v -1.92578 -1.92576 h -1.92576 -1.92577 v 1.92576 1.92578 h -1.92577 -1.92576 v -1.92578 -1.92576 h -1.92579 -1.92576 v 3.85154 3.85153 h -1.82948 -1.82948 v -1.92576 -1.92577 h -5.7773 -5.77731 v -1.92578 -1.92576 h 5.77731 5.7773 v -1.92578 -1.92576 h 1.82948 1.82948 v -3.75524 -3.75525 h -1.82948 -1.82948 v 1.92577 1.92577 h -1.92576 -1.92578 v -1.92577 -1.92577 h -1.92576 -1.92577 v 1.92577 1.92577 h -1.92577 -1.92577 v 3.75524 3.75525 h -1.92577 -1.92577 v 3.85154 3.85153 h -1.92577 -1.92577 v -1.92576 -1.92577 h -1.82948 -1.82948 v 1.92577 1.92576 h -1.92577 -1.92578 v 1.92577 1.92577 h -1.92577 -1.92576 v 1.92577 1.92576 h -1.92578 -1.92576 v -1.92576 -1.92577 h -1.92577 -1.92578 v 5.68102 5.68101 h -1.92576 -1.92577 v 3.85153 3.85156 h -1.82948 -1.829476 v -1.92577 -1.92579 h -1.92577 -1.92576 v 7.60681 7.60678 z m 1.925766,-7.51049 h 1.82948 v -1.92577 -1.92577 h 1.92577 1.92576 v -1.92577 -1.92579 h 1.92578 1.92577 v -3.85153 -3.85153 h 1.92576 1.92578 v -1.82948 -1.8295 h 1.92576 1.92577 v -1.92576 -1.92577 h 1.92578 1.92577 v 1.92577 1.92576 h 1.82948 1.82948 v 1.8295 1.82948 h 5.77731 5.77731 v -1.82948 -1.8295 h 1.92577 1.92576 v -1.92576 -1.92577 h -5.7773 -5.77731 v -1.92577 -1.92577 h 5.77731 5.7773 v 1.92577 1.92577 h 1.92578 1.92576 v 7.60679 7.60678 h -3.85154 -3.85153 v -1.92576 -1.92577 h -1.92577 -1.92577 v 1.92577 1.92576 h -3.85154 -3.85154 v -1.92576 -1.92577 h -1.82948 -1.82948 v -1.92577 -1.92576 h -3.85155 -3.85153 v 1.92576 1.92577 h 1.92576 1.92577 v 1.92577 1.92576 h -3.85153 -3.85154 v 1.92579 1.92577 h -1.92577 -1.92578 v 1.92577 1.92577 h -1.92576 -1.92577 v 1.92576 1.92577 h -1.82948 -1.829476 v -1.92577 -1.92576 z m 38.22653,-11.55463 h 1.92576 v -1.92577 -1.92576 h -1.92576 -1.92577 v 1.92576 1.92577 z m 0,-30.42714 h 1.92576 v 1.82948 1.82947 h -1.92576 -1.92577 v -1.82947 -1.82948 z m -34.47128,64.89841 h 1.92576 v -1.92577 -1.92576 h -1.92576 -1.92577 v 1.92576 1.92577 z m 7.70307,0 h 1.92578 v -1.92577 -1.92576 h -1.92578 -1.92576 v 1.92576 1.92577 z m 5.77731,-87.81507 h 3.85155 v -1.92576 -1.92578 h -3.85155 -3.85153 v 1.92578 1.92576 z m 1.92578,11.36204 h 1.92577 v -1.92577 -1.92576 h -1.92577 -1.92578 v 1.92576 1.92577 z m 0,80.30457 h 1.92577 v -1.92576 -1.92578 h -1.92577 -1.92578 v 1.92578 1.92576 z m 3.75525,-61.23946 h 1.82948 v -1.92578 -1.92576 h -1.82948 -1.82948 v 1.92576 1.92578 z m 34.37498,-3.85154 h 1.92576 v -3.75524 -3.75525 h -1.92576 -1.92577 v 3.75525 3.75524 z M 54.829487,222.35535 h 1.829478 v -1.92577 -1.92576 h 3.851534 3.851541 v 1.92576 1.92577 h -3.851541 -3.851534 v 1.92578 1.92576 h 5.777307 5.777307 v 1.82948 1.82949 h -5.777307 -5.777307 v -1.82949 -1.82948 H 54.829487 53 v -1.92576 -1.92578 z M 85.35292,119.13414 h 1.925772 v 1.92577 1.92577 H 85.35292 83.427148 v -1.92577 -1.92577 z m 64.99471,0.19258 h 13.38409 v 13.2878 13.2878 h -13.38409 -13.3841 v -13.2878 -13.28781 z m 0,22.72407 h 9.53254 v -9.53257 -9.53254 h -9.53254 -9.53257 v 9.53254 9.53257 z m 0,-15.21357 h 5.68101 v 5.681 5.68102 h -5.68101 -5.68103 v -5.68102 -5.68101 z m 0,76.45302 h 13.38409 v 13.28781 13.28781 h -13.38409 -13.3841 v -13.28781 -13.28781 z m 0,22.91665 h 9.53254 v -9.53255 -9.53257 h -9.53254 -9.53257 v 9.53257 9.53255 z m 0,-15.40614 h 5.68101 v 5.7773 5.7773 h -5.68101 -5.68103 v -5.7773 -5.7773 z"
         id="path7521" /></g><path
       id="path7868"
       style="fill:none;stroke:#000000;stroke-width:0.0888098"
       d="m 148.52758,61.999892 a 2.5,2.5 0 0 0 -2.5001,2.500106 2.5,2.5 0 0 0 2.5001,2.500105 2.5,2.5 0 0 0 1.9973,-0.999939 h 2.64273 c 0.831,0 1.50017,-0.669167 1.50017,-1.500166 0,-0.831 -0.66917,-1.500167 -1.50017,-1.500167 h -2.64015 a 2.5,2.5 0 0 0 -1.99988,-0.999939 z" /><path
       id="path7868-7"
       style="fill:none;stroke:#000000;stroke-width:0.0888098"
       d="m 148.52758,281.86577 a 2.5,2.5 0 0 0 -2.5001,2.50011 2.5,2.5 0 0 0 2.5001,2.5001 2.5,2.5 0 0 0 1.9973,-0.99994 h 2.64273 c 0.831,0 1.50017,-0.66916 1.50017,-1.50016 0,-0.831 -0.66917,-1.50017 -1.50017,-1.50017 h -2.64015 a 2.5,2.5 0 0 0 -1.99988,-0.99994 z" /><path
       id="rect8074"
       style="stroke-width:0.1;stroke:#000000;fill:none"
       d="M 26.500191 25.048083 C 25.115193 25.048083 24.000085 26.162674 24.000085 27.547673 C 24.000085 28.932671 25.115193 30.047778 26.500191 30.047778 L 96.500053 30.047778 C 97.885052 30.047778 99.000159 28.932671 99.000159 27.547673 C 99.000159 26.162674 97.885052 25.048083 96.500053 25.048083 L 26.500191 25.048083 z M 26.500191 34.285763 C 25.115193 34.285763 24.000085 35.40087 24.000085 36.785868 C 24.000085 38.170867 25.115193 39.285974 26.500191 39.285974 L 62.500061 39.285974 C 63.88506 39.285974 65.000167 38.170867 65.000167 36.785868 C 65.000167 35.40087 63.88506 34.285763 62.500061 34.285763 L 26.500191 34.285763 z M 26.500191 43.523958 C 25.115193 43.523958 24.000085 44.639066 24.000085 46.024064 C 24.000085 47.409063 25.115193 48.52417 26.500191 48.52417 L 67.499756 48.52417 C 68.884754 48.52417 69.999862 47.409063 69.999862 46.024064 C 69.999862 44.639066 68.884754 43.523958 67.499756 43.523958 L 26.500191 43.523958 z M 26.500191 52.762154 C 25.115193 52.762154 24.000085 53.876745 24.000085 55.261743 C 24.000085 56.646742 25.115193 57.761849 26.500191 57.761849 L 32.499825 57.761849 C 33.884824 57.761849 34.999931 56.646742 34.999931 55.261743 C 34.999931 53.876745 33.884824 52.762154 32.499825 52.762154 L 26.500191 52.762154 z M 26.500191 61.999833 C 25.115193 61.999833 24.000085 63.11494 24.000085 64.499939 C 24.000085 65.884938 25.115193 67.000045 26.500191 67.000045 L 78.500118 67.000045 C 79.885117 67.000045 81.000224 65.884938 81.000224 64.499939 C 81.000224 63.11494 79.885117 61.999833 78.500118 61.999833 L 26.500191 61.999833 z M 26.500191 71.238029 C 25.115193 71.238029 24.000085 72.353136 24.000085 73.738135 C 24.000085 75.123133 25.115193 76.238241 26.500191 76.238241 L 132.49992 76.238241 C 133.88492 76.238241 135.00003 75.123133 135.00003 73.738135 C 135.00003 72.353136 133.88492 71.238029 132.49992 71.238029 L 26.500191 71.238029 z M 26.500191 80.476225 C 25.115193 80.476225 24.000085 81.591332 24.000085 82.976331 C 24.000085 84.361329 25.115193 85.47592 26.500191 85.47592 L 65.499878 85.47592 C 66.884877 85.47592 67.999984 84.361329 67.999984 82.976331 C 67.999984 81.591332 66.884877 80.476225 65.499878 80.476225 L 26.500191 80.476225 z M 26.500191 89.713904 C 25.115193 89.713904 24.000085 90.829011 24.000085 92.21401 C 24.000085 93.599008 25.115193 94.714115 26.500191 94.714115 L 124.49989 94.714115 C 125.88489 94.714115 127 93.599008 127 92.21401 C 127 90.829011 125.88489 89.713904 124.49989 89.713904 L 26.500191 89.713904 z M 26.500191 98.9521 C 25.115193 98.9521 24.000085 100.06721 24.000085 101.45221 C 24.000085 102.8372 25.115193 103.95231 26.500191 103.95231 L 82.499874 103.95231 C 83.884872 103.95231 84.99998 102.8372 84.99998 101.45221 C 84.99998 100.06721 83.884872 98.9521 82.499874 98.9521 L 26.500191 98.9521 z M 26.500191 244.91373 C 25.115193 244.91373 24.000085 246.02884 24.000085 247.41384 C 24.000085 248.79884 25.115193 249.91394 26.500191 249.91394 L 125.49983 249.91394 C 126.88483 249.91394 127.99994 248.79884 127.99994 247.41384 C 127.99994 246.02884 126.88483 244.91373 125.49983 244.91373 L 26.500191 244.91373 z M 26.500191 254.15193 C 25.115193 254.15193 24.000085 255.26652 24.000085 256.65152 C 24.000085 258.03652 25.115193 259.15162 26.500191 259.15162 L 127.50023 259.15162 C 128.88523 259.15162 129.99982 258.03652 129.99982 256.65152 C 129.99982 255.26652 128.88523 254.15193 127.50023 254.15193 L 26.500191 254.15193 z M 26.500191 263.38961 C 25.115193 263.38961 24.000085 264.50471 24.000085 265.88971 C 24.000085 267.27471 25.115193 268.38982 26.500191 268.38982 L 75.499784 268.38982 C 76.884783 268.38982 77.99989 267.27471 77.99989 265.88971 C 77.99989 264.50471 76.884783 263.38961 75.499784 263.38961 L 26.500191 263.38961 z M 26.500191 272.6278 C 25.115193 272.6278 24.000085 273.74291 24.000085 275.12791 C 24.000085 276.51291 25.115193 277.62802 26.500191 277.62802 L 99.49987 277.62802 C 100.88487 277.62802 101.99998 276.51291 101.99998 275.12791 C 101.99998 273.74291 100.88487 272.6278 99.49987 272.6278 L 26.500191 272.6278 z M 26.500191 281.866 C 25.115193 281.866 24.000085 282.98111 24.000085 284.36611 C 24.000085 285.7511 25.115193 286.86569 26.500191 286.86569 L 84.499752 286.86569 C 85.88475 286.86569 86.999858 285.7511 86.999858 284.36611 C 86.999858 282.98111 85.88475 281.866 84.499752 281.866 L 26.500191 281.866 z M 26.500191 291.10368 C 25.115193 291.10368 24.000085 292.21879 24.000085 293.60378 C 24.000085 294.98878 25.115193 296.10389 26.500191 296.10389 L 93.500236 296.10389 C 94.885235 296.10389 95.999825 294.98878 95.999825 293.60378 C 95.999825 292.21879 94.885235 291.10368 93.500236 291.10368 L 26.500191 291.10368 z M 26.500191 300.34187 C 25.115193 300.34187 24.000085 301.45698 24.000085 302.84198 C 24.000085 304.22698 25.115193 305.34209 26.500191 305.34209 L 30.499947 305.34209 C 31.884946 305.34209 33.000053 304.22698 33.000053 302.84198 C 33.000053 301.45698 31.884946 300.34187 30.499947 300.34187 L 26.500191 300.34187 z M 26.500191 309.58007 C 25.115193 309.58007 24.000085 310.69518 24.000085 312.08018 C 24.000085 313.46517 25.115193 314.57976 26.500191 314.57976 L 40.499854 314.57976 C 41.884852 314.57976 42.999959 313.46517 42.999959 312.08018 C 42.999959 310.69518 41.884852 309.58007 40.499854 309.58007 L 26.500191 309.58007 z M 26.500191 318.81827 C 25.115193 318.81827 24.000085 319.93286 24.000085 321.31785 C 24.000085 322.70285 25.115193 323.81796 26.500191 323.81796 L 34.50022 323.81796 C 35.885218 323.81796 36.999809 322.70285 36.999809 321.31785 C 36.999809 319.93286 35.885218 318.81827 34.50022 318.81827 L 26.500191 318.81827 z " /></g></svg>
