<?xml version="1.0" encoding="UTF-8" standalone="no"?>
<!-- Created with Inkscape (http://www.inkscape.org/) -->

<svg
   width="380mm"
   height="510mm"
   viewBox="0 0 380 510"
   version="1.1"
   id="svg1"
   sodipodi:docname="grid_32x16.svg"
   inkscape:version="1.3 (0e150ed6c4, 2023-07-21)"
   xmlns:inkscape="http://www.inkscape.org/namespaces/inkscape"
   xmlns:sodipodi="http://sodipodi.sourceforge.net/DTD/sodipodi-0.dtd"
   xmlns="http://www.w3.org/2000/svg"
   xmlns:svg="http://www.w3.org/2000/svg">
  <sodipodi:namedview
     id="namedview1"
     pagecolor="#ffffff"
     bordercolor="#000000"
     borderopacity="0.25"
     inkscape:showpageshadow="2"
     inkscape:pageopacity="0.0"
     inkscape:pagecheckerboard="0"
     inkscape:deskcolor="#d1d1d1"
     inkscape:document-units="mm"
     inkscape:zoom="0.75743464"
     inkscape:cx="717.55366"
     inkscape:cy="963.77953"
     inkscape:window-width="2880"
     inkscape:window-height="1760"
     inkscape:window-x="-12"
     inkscape:window-y="-12"
     inkscape:window-maximized="1"
     inkscape:current-layer="svg1" />
  <defs
     id="defs1" />
  <g
     id="layer1">
    <g
       id="g2"
       style="fill:none;stroke:#000000;stroke-opacity:1;stroke-width:0.1;stroke-dasharray:none">
      <path
         id="rect1"
         style="fill:none;stroke:#000000;stroke-width:0.1;stroke-dasharray:none;stroke-opacity:1"
         d="m 15.000069,15 v 9.9999 H 345.00008 V 15 H 330.9999 v 5.49992 h -1.99987 V 15 H 321 v 5.49992 h -1.99988 V 15 h -8.00003 v 5.49992 h -1.99988 V 15 h -8.00003 v 5.49992 h -2.00039 V 15 h -7.99951 v 5.49992 h -2.0004 V 15 h -8.00003 v 5.49992 h -1.99987 V 15 h -8.00003 v 5.49992 h -1.99988 V 15 h -8.00003 v 5.49992 h -1.99988 V 15 h -8.00002 v 5.49992 h -1.99988 V 15 h -8.00003 v 5.49992 h -2.0004 V 15 h -7.99951 v 5.49992 h -2.00039 V 15 h -8.00003 v 5.49992 h -1.99988 V 15 h -8.00003 v 5.49992 h -1.99988 V 15 h -8.00002 v 5.49992 h -1.99988 V 15 h -8.00003 v 5.49992 H 189.0003 V 15 h -8.00003 v 5.49992 h -2.00039 V 15 h -8.00003 v 5.49992 h -1.99988 V 15 h -8.00003 v 5.49992 h -1.99987 V 15 h -8.00003 v 5.49992 h -1.99988 V 15 h -8.00003 v 5.49992 h -1.99988 V 15 h -8.00003 v 5.49992 h -2.00039 V 15 h -7.99951 v 5.49992 h -2.0004 V 15 h -8.00003 v 5.49992 h -1.99988 V 15 h -8.00003 v 5.49992 H 99.000114 V 15 h -8.00003 v 5.49992 h -1.99988 V 15 h -8.00003 v 5.49992 h -1.99988 V 15 h -8.00003 v 5.49992 h -2.00039 V 15 h -8.00003 v 5.49992 h -1.99988 V 15 h -8.00003 v 5.49992 h -1.99987 V 15 h -8.00003 v 5.49992 h -1.99988 V 15 h -8.00003 v 5.49992 h -1.99988 V 15 Z" />
      <path
         id="rect1-0"
         style="fill:none;stroke:#000000;stroke-width:0.1;stroke-dasharray:none;stroke-opacity:1"
         d="m 14.999878,29.50008 v 9.9999 H 344.99988 v -9.9999 H 330.9997 V 35 h -1.99987 V 29.50008 H 320.9998 V 35 h -1.99988 v -5.49992 h -8.00003 V 35 h -1.99988 v -5.49992 h -8.00003 V 35 h -2.00039 v -5.49992 h -7.99951 V 35 h -2.0004 v -5.49992 h -8.00003 V 35 h -1.99987 v -5.49992 h -8.00003 V 35 h -1.99988 v -5.49992 h -8.00003 V 35 h -1.99988 v -5.49992 h -8.00002 V 35 h -1.99988 v -5.49992 h -8.00003 V 35 h -2.0004 v -5.49992 h -7.99951 V 35 h -2.00039 V 29.50008 H 220.9997 V 35 h -1.99988 v -5.49992 h -8.00003 V 35 h -1.99988 v -5.49992 h -8.00002 V 35 h -1.99988 v -5.49992 h -8.00002 V 35 h -1.99988 v -5.49992 h -8.00003 V 35 h -2.00039 v -5.49992 h -8.00003 V 35 h -1.99988 v -5.49992 h -8.00003 V 35 h -1.99987 v -5.49992 h -8.00003 V 35 h -1.99988 v -5.49992 h -8.00003 V 35 h -1.99988 v -5.49992 h -8.00003 V 35 h -2.00039 v -5.49992 h -7.99951 V 35 h -2.0004 V 29.50008 H 110.9997 V 35 h -1.99988 v -5.49992 h -8.00003 V 35 h -1.999867 v -5.49992 h -8.00003 V 35 h -1.99988 v -5.49992 h -8.00003 V 35 h -1.99988 v -5.49992 h -8.00003 V 35 h -2.00039 v -5.49992 h -8.00003 V 35 h -1.99988 v -5.49992 h -8.00003 V 35 h -1.99987 v -5.49992 h -8.00003 V 35 h -1.99988 v -5.49992 h -8.00003 V 35 h -1.99988 v -5.49992 z" />
      <path
         id="rect1-5"
         style="fill:none;stroke:#000000;stroke-width:0.1;stroke-dasharray:none;stroke-opacity:1"
         d="m 15.000214,45.000001 v 9.9999 H 345.00022 v -9.9999 h -14.00018 v 5.49992 h -1.99987 v -5.49992 h -8.00003 v 5.49992 h -1.99988 v -5.49992 h -8.00003 v 5.49992 h -1.99988 v -5.49992 h -8.00003 v 5.49992 h -2.00039 v -5.49992 h -7.99951 v 5.49992 h -2.0004 v -5.49992 h -8.00003 v 5.49992 h -1.99987 v -5.49992 h -8.00003 v 5.49992 h -1.99988 v -5.49992 h -8.00003 v 5.49992 h -1.99988 v -5.49992 h -8.00002 v 5.49992 h -1.99988 v -5.49992 h -8.00003 v 5.49992 h -2.0004 v -5.49992 h -7.99951 v 5.49992 h -2.00039 v -5.49992 h -8.00003 v 5.49992 h -1.99988 v -5.49992 h -8.00003 v 5.49992 h -1.99988 v -5.49992 h -8.00002 v 5.49992 h -1.99988 v -5.49992 h -8.00003 v 5.49992 h -1.99988 v -5.49992 h -8.00003 v 5.49992 h -2.00039 v -5.49992 h -8.00003 v 5.49992 h -1.99988 v -5.49992 h -8.00003 v 5.49992 h -1.99987 v -5.49992 h -8.00003 v 5.49992 h -1.99988 v -5.49992 h -8.00003 v 5.49992 h -1.99988 v -5.49992 h -8.00003 v 5.49992 h -2.00039 v -5.49992 h -7.99951 v 5.49992 h -2.0004 v -5.49992 h -8.00003 v 5.49992 h -1.99988 v -5.49992 h -8.00003 v 5.49992 h -1.999856 v -5.49992 h -8.00003 v 5.49992 h -1.99988 v -5.49992 h -8.00003 v 5.49992 h -1.99988 v -5.49992 h -8.00003 v 5.49992 h -2.00039 v -5.49992 h -8.00003 v 5.49992 h -1.99988 v -5.49992 h -8.00003 v 5.49992 h -1.99987 v -5.49992 h -8.00003 v 5.49992 h -1.99988 v -5.49992 h -8.00003 v 5.49992 h -1.99988 v -5.49992 z" />
      <path
         id="rect1-0-5"
         style="fill:none;stroke:#000000;stroke-width:0.1;stroke-dasharray:none;stroke-opacity:1"
         d="m 15.000024,59.500081 v 9.9999 H 345.00002 v -9.9999 h -14.00018 v 5.49992 h -1.99987 v -5.49992 h -8.00003 v 5.49992 h -1.99988 v -5.49992 h -8.00003 v 5.49992 h -1.99988 v -5.49992 h -8.00003 v 5.49992 h -2.00039 v -5.49992 h -7.99951 v 5.49992 h -2.0004 v -5.49992 h -8.00003 v 5.49992 h -1.99987 v -5.49992 h -8.00003 v 5.49992 h -1.99988 v -5.49992 h -8.00003 v 5.49992 h -1.99988 v -5.49992 h -8.00002 v 5.49992 h -1.99988 v -5.49992 h -8.00003 v 5.49992 h -2.0004 v -5.49992 h -7.99951 v 5.49992 h -2.00039 v -5.49992 h -8.00003 v 5.49992 h -1.99988 v -5.49992 h -8.00003 v 5.49992 h -1.99988 v -5.49992 h -8.00002 v 5.49992 h -1.99988 v -5.49992 h -8.00002 v 5.49992 h -1.99988 v -5.49992 h -8.00003 v 5.49992 h -2.00039 v -5.49992 h -8.00003 v 5.49992 h -1.99988 v -5.49992 h -8.00003 v 5.49992 h -1.99987 v -5.49992 h -8.00003 v 5.49992 h -1.99988 v -5.49992 h -8.00003 v 5.49992 h -1.99988 v -5.49992 h -8.00003 v 5.49992 h -2.00039 v -5.49992 h -7.99951 v 5.49992 h -2.0004 v -5.49992 h -8.00003 v 5.49992 h -1.99988 v -5.49992 h -8.00003 v 5.49992 h -1.999866 v -5.49992 h -8.00003 v 5.49992 h -1.99988 v -5.49992 h -8.00003 v 5.49992 h -1.99988 v -5.49992 h -8.00003 v 5.49992 h -2.00038 v -5.49992 h -8.00003 v 5.49992 h -1.99988 v -5.49992 h -8.00003 v 5.49992 h -1.99988 v -5.49992 h -8.00002 v 5.49992 h -1.99988 v -5.49992 h -8.00003 v 5.49992 h -1.99988 v -5.49992 z" />
      <path
         id="rect1-2"
         style="fill:none;stroke:#000000;stroke-width:0.1;stroke-dasharray:none;stroke-opacity:1"
         d="m 15,75.000001 v 9.9999 h 330.00001 v -9.9999 h -14.00018 v 5.49992 h -1.99987 v -5.49992 h -8.00003 v 5.49992 h -1.99988 v -5.49992 h -8.00003 v 5.49992 h -1.99988 v -5.49992 h -8.00003 v 5.49992 h -2.00039 v -5.49992 h -7.99951 v 5.49992 h -2.0004 v -5.49992 h -8.00003 v 5.49992 h -1.99987 v -5.49992 h -8.00003 v 5.49992 H 269 v -5.49992 h -8.00003 v 5.49992 h -1.99988 v -5.49992 h -8.00002 v 5.49992 h -1.99988 v -5.49992 h -8.00003 v 5.49992 h -2.0004 v -5.49992 h -7.99951 v 5.49992 h -2.00039 v -5.49992 h -8.00003 v 5.49992 h -1.99988 v -5.49992 h -8.00003 v 5.49992 h -1.99988 v -5.49992 h -8.00002 v 5.49992 h -1.99988 v -5.49992 h -8.00003 v 5.49992 h -1.99988 v -5.49992 h -8.00003 v 5.49992 h -2.00039 v -5.49992 h -8.00003 v 5.49992 h -1.99988 v -5.49992 h -8.00003 v 5.49992 H 159 v -5.49992 h -8.00003 v 5.49992 h -1.99988 v -5.49992 h -8.00003 v 5.49992 h -1.99988 v -5.49992 h -8.00003 v 5.49992 h -2.00039 v -5.49992 h -7.99951 v 5.49992 h -2.0004 v -5.49992 h -8.00003 v 5.49992 h -1.99988 v -5.49992 h -8.00003 v 5.49992 h -1.99987 v -5.49992 h -8.00003 v 5.49992 h -1.99988 v -5.49992 H 81.0001 v 5.49992 h -1.99988 v -5.49992 h -8.00003 v 5.49992 H 68.9998 v -5.49992 h -8.00003 v 5.49992 h -1.99988 v -5.49992 h -8.00003 v 5.49992 h -1.99987 v -5.49992 h -8.00003 v 5.49992 h -1.99988 v -5.49992 h -8.00003 v 5.49992 h -1.99988 v -5.49992 z" />
      <path
         id="rect1-0-7"
         style="fill:none;stroke:#000000;stroke-width:0.1;stroke-dasharray:none;stroke-opacity:1"
         d="m 14.99981,89.500081 v 9.9999 h 330 v -9.9999 h -14.00018 v 5.49992 h -1.99987 v -5.49992 h -8.00003 v 5.49992 h -1.99988 v -5.49992 h -8.00003 v 5.49992 h -1.99988 v -5.49992 h -8.00003 v 5.49992 h -2.00039 v -5.49992 h -7.99951 v 5.49992 h -2.0004 v -5.49992 h -8.00003 v 5.49992 h -1.99987 v -5.49992 h -8.00003 v 5.49992 h -1.99988 v -5.49992 h -8.00003 v 5.49992 h -1.99988 v -5.49992 h -8.00002 v 5.49992 h -1.99988 v -5.49992 h -8.00003 v 5.49992 h -2.0004 v -5.49992 h -7.99951 v 5.49992 h -2.00039 v -5.49992 h -8.00003 v 5.49992 h -1.99988 v -5.49992 h -8.00003 v 5.49992 h -1.99988 v -5.49992 h -8.00002 v 5.49992 h -1.99988 v -5.49992 h -8.00002 v 5.49992 h -1.99988 v -5.49992 h -8.00003 v 5.49992 h -2.00039 v -5.49992 h -8.00003 v 5.49992 h -1.99988 v -5.49992 h -8.00003 v 5.49992 h -1.99987 v -5.49992 h -8.00003 v 5.49992 h -1.99988 v -5.49992 h -8.00003 v 5.49992 h -1.99988 v -5.49992 h -8.00003 v 5.49992 h -2.00039 v -5.49992 h -7.99951 v 5.49992 h -2.0004 v -5.49992 h -8.00003 v 5.49992 h -1.99988 v -5.49992 h -8.00003 v 5.49992 h -1.99987 v -5.49992 h -8.00003 v 5.49992 h -1.99988 v -5.49992 h -8.00003 v 5.49992 h -1.99988 v -5.49992 H 71 v 5.49992 h -2.00039 v -5.49992 h -8.00003 v 5.49992 H 58.9997 v -5.49992 h -8.00003 v 5.49992 H 48.9998 v -5.49992 h -8.00003 v 5.49992 h -1.99988 v -5.49992 h -8.00003 v 5.49992 h -1.99988 v -5.49992 z" />
      <path
         id="rect1-5-3"
         style="fill:none;stroke:#000000;stroke-width:0.1;stroke-dasharray:none;stroke-opacity:1"
         d="m 15.00014,105 v 9.9999 H 345.00015 V 105 h -14.00018 v 5.49992 H 329.0001 V 105 h -8.00003 v 5.49992 h -1.99988 V 105 h -8.00003 v 5.49992 h -1.99988 V 105 h -8.00003 v 5.49992 h -2.00039 V 105 h -7.99951 v 5.49992 h -2.0004 V 105 h -8.00003 v 5.49992 h -1.99987 V 105 h -8.00003 v 5.49992 h -1.99988 V 105 h -8.00003 v 5.49992 h -1.99988 V 105 h -8.00002 v 5.49992 h -1.99988 V 105 h -8.00003 v 5.49992 h -2.0004 V 105 h -7.99951 v 5.49992 H 229 V 105 h -8.00003 v 5.49992 h -1.99988 V 105 h -8.00003 v 5.49992 h -1.99988 V 105 h -8.00002 v 5.49992 h -1.99988 V 105 h -8.00003 v 5.49992 h -1.99988 V 105 h -8.00003 v 5.49992 h -2.00039 V 105 h -8.00003 v 5.49992 h -1.99988 V 105 h -8.00003 v 5.49992 h -1.99987 V 105 h -8.00003 v 5.49992 h -1.99988 V 105 h -8.00003 v 5.49992 h -1.99988 V 105 h -8.00003 v 5.49992 H 128.9999 V 105 h -7.99951 v 5.49992 h -2.0004 V 105 h -8.00003 v 5.49992 h -1.99988 V 105 h -8.00003 v 5.49992 H 99.00019 V 105 h -8.00003 v 5.49992 H 89.00028 V 105 h -8.00003 v 5.49992 H 79.00037 V 105 h -8.00003 v 5.49992 H 68.99995 V 105 h -8.00003 v 5.49992 H 59.00004 V 105 h -8.00003 v 5.49992 H 49.00014 V 105 h -8.00003 v 5.49992 H 39.00023 V 105 H 31.0002 v 5.49992 H 29.00032 V 105 Z" />
      <path
         id="rect1-0-5-8"
         style="fill:none;stroke:#000000;stroke-width:0.1;stroke-dasharray:none;stroke-opacity:1"
         d="m 14.99995,119.50008 v 9.9999 h 330 v -9.9999 H 330.99977 V 125 h -1.99987 v -5.49992 h -8.00003 V 125 h -1.99988 v -5.49992 h -8.00003 V 125 h -1.99988 v -5.49992 h -8.00003 V 125 h -2.00039 v -5.49992 h -7.99951 V 125 h -2.0004 v -5.49992 h -8.00003 V 125 h -1.99987 v -5.49992 h -8.00003 V 125 h -1.99988 v -5.49992 h -8.00003 V 125 h -1.99988 v -5.49992 h -8.00002 V 125 h -1.99988 v -5.49992 H 241.0001 V 125 h -2.0004 v -5.49992 h -7.99951 V 125 h -2.00039 v -5.49992 h -8.00003 V 125 h -1.99988 v -5.49992 h -8.00003 V 125 h -1.99988 v -5.49992 h -8.00002 V 125 h -1.99988 v -5.49992 h -8.00002 V 125 h -1.99988 v -5.49992 h -8.00003 V 125 h -2.00039 v -5.49992 h -8.00003 V 125 h -1.99988 v -5.49992 h -8.00003 V 125 h -1.99987 v -5.49992 h -8.00003 V 125 h -1.99988 v -5.49992 h -8.00003 V 125 h -1.99988 v -5.49992 H 131.0001 V 125 h -2.00039 v -5.49992 H 121.0002 V 125 h -2.0004 v -5.49992 h -8.00003 V 125 h -1.99988 v -5.49992 h -8.00003 V 125 h -1.99987 v -5.49992 H 90.99996 V 125 h -1.99988 v -5.49992 H 81.00005 V 125 h -1.99988 v -5.49992 H 71.00014 V 125 h -2.00038 v -5.49992 H 60.99973 V 125 h -1.99988 v -5.49992 H 50.99982 V 125 h -1.99988 v -5.49992 H 40.99992 V 125 h -1.99988 v -5.49992 H 31.00001 V 125 h -1.99988 v -5.49992 z" />
      <path
         id="rect1-8"
         style="fill:none;stroke:#000000;stroke-width:0.1;stroke-dasharray:none;stroke-opacity:1"
         d="M 15,135.0001 V 145 h 330.00001 v -9.9999 h -14.00018 v 5.49992 h -1.99987 v -5.49992 h -8.00003 v 5.49992 h -1.99988 v -5.49992 h -8.00003 v 5.49992 h -1.99988 v -5.49992 h -8.00003 v 5.49992 h -2.00039 v -5.49992 h -7.99951 v 5.49992 h -2.0004 v -5.49992 h -8.00003 v 5.49992 h -1.99987 v -5.49992 h -8.00003 v 5.49992 H 269 v -5.49992 h -8.00003 v 5.49992 h -1.99988 v -5.49992 h -8.00002 v 5.49992 h -1.99988 v -5.49992 h -8.00003 v 5.49992 h -2.0004 v -5.49992 h -7.99951 v 5.49992 h -2.00039 v -5.49992 h -8.00003 v 5.49992 h -1.99988 v -5.49992 h -8.00003 v 5.49992 h -1.99988 v -5.49992 h -8.00002 v 5.49992 h -1.99988 v -5.49992 h -8.00003 v 5.49992 h -1.99988 v -5.49992 h -8.00003 v 5.49992 h -2.00039 v -5.49992 h -8.00003 v 5.49992 h -1.99988 v -5.49992 h -8.00003 v 5.49992 H 159 v -5.49992 h -8.00003 v 5.49992 h -1.99988 v -5.49992 h -8.00003 v 5.49992 h -1.99988 v -5.49992 h -8.00003 v 5.49992 h -2.00039 v -5.49992 h -7.99951 v 5.49992 h -2.0004 v -5.49992 h -8.00003 v 5.49992 h -1.99988 v -5.49992 h -8.00003 v 5.49992 h -1.999865 v -5.49992 h -8.00003 v 5.49992 h -1.99988 v -5.49992 h -8.00003 v 5.49992 h -1.99988 v -5.49992 h -8.00003 v 5.49992 h -2.00039 v -5.49992 h -8.00003 v 5.49992 h -1.99988 v -5.49992 h -8.00003 v 5.49992 h -1.99987 v -5.49992 h -8.00003 v 5.49992 h -1.99988 v -5.49992 h -8.00003 v 5.49992 h -1.99988 v -5.49992 z" />
      <path
         id="rect1-0-9"
         style="fill:none;stroke:#000000;stroke-width:0.1;stroke-dasharray:none;stroke-opacity:1"
         d="m 14.999809,149.50018 v 9.9999 H 344.99981 v -9.9999 h -14.00018 v 5.49992 h -1.99987 v -5.49992 h -8.00003 v 5.49992 h -1.99988 v -5.49992 h -8.00003 v 5.49992 h -1.99988 v -5.49992 h -8.00003 v 5.49992 h -2.00039 v -5.49992 h -7.99951 v 5.49992 h -2.0004 v -5.49992 h -8.00003 v 5.49992 h -1.99987 v -5.49992 h -8.00003 v 5.49992 h -1.99988 v -5.49992 h -8.00003 v 5.49992 h -1.99988 v -5.49992 h -8.00002 v 5.49992 h -1.99988 v -5.49992 h -8.00003 v 5.49992 h -2.0004 v -5.49992 h -7.99951 v 5.49992 h -2.00039 v -5.49992 h -8.00003 v 5.49992 h -1.99988 v -5.49992 h -8.00003 v 5.49992 h -1.99988 v -5.49992 h -8.00002 v 5.49992 h -1.99988 v -5.49992 h -8.00002 v 5.49992 h -1.99988 v -5.49992 h -8.00003 v 5.49992 h -2.00039 v -5.49992 h -8.00003 v 5.49992 h -1.99988 v -5.49992 h -8.00003 v 5.49992 h -1.99987 v -5.49992 h -8.00003 v 5.49992 h -1.99988 v -5.49992 h -8.00003 v 5.49992 h -1.99988 v -5.49992 h -8.00003 v 5.49992 h -2.00039 v -5.49992 h -7.99951 v 5.49992 h -2.0004 v -5.49992 h -8.00003 v 5.49992 h -1.99988 v -5.49992 h -8.00003 v 5.49992 h -1.999866 v -5.49992 h -8.00003 v 5.49992 h -1.99988 v -5.49992 h -8.00003 v 5.49992 h -1.99988 v -5.49992 h -8.00003 v 5.49992 h -2.00039 v -5.49992 h -8.00003 v 5.49992 h -1.99988 v -5.49992 h -8.00003 v 5.49992 h -1.99987 v -5.49992 h -8.00003 v 5.49992 h -1.99988 v -5.49992 h -8.00003 v 5.49992 h -1.99988 v -5.49992 z" />
      <path
         id="rect1-5-7"
         style="fill:none;stroke:#000000;stroke-width:0.1;stroke-dasharray:none;stroke-opacity:1"
         d="M 15.000145,165.0001 V 175 H 345.00015 v -9.9999 h -14.00018 v 5.49992 h -1.99987 v -5.49992 h -8.00003 v 5.49992 h -1.99988 v -5.49992 h -8.00003 v 5.49992 h -1.99988 v -5.49992 h -8.00003 v 5.49992 h -2.00039 v -5.49992 h -7.99951 v 5.49992 h -2.0004 v -5.49992 h -8.00003 v 5.49992 h -1.99987 v -5.49992 h -8.00003 v 5.49992 h -1.99988 v -5.49992 h -8.00003 v 5.49992 h -1.99988 v -5.49992 h -8.00002 v 5.49992 h -1.99988 v -5.49992 h -8.00003 v 5.49992 h -2.0004 v -5.49992 h -7.99951 v 5.49992 H 229 v -5.49992 h -8.00003 v 5.49992 h -1.99988 v -5.49992 h -8.00003 v 5.49992 h -1.99988 v -5.49992 h -8.00002 v 5.49992 h -1.99988 v -5.49992 h -8.00003 v 5.49992 h -1.99988 v -5.49992 h -8.00003 v 5.49992 h -2.00039 v -5.49992 h -8.00003 v 5.49992 h -1.99988 v -5.49992 h -8.00003 v 5.49992 h -1.99987 v -5.49992 h -8.00003 v 5.49992 h -1.99988 v -5.49992 h -8.00003 v 5.49992 h -1.99988 v -5.49992 h -8.00003 v 5.49992 h -2.00039 v -5.49992 h -7.99951 v 5.49992 h -2.0004 v -5.49992 h -8.00003 v 5.49992 h -1.99988 v -5.49992 h -8.00003 v 5.49992 h -1.999855 v -5.49992 h -8.00003 v 5.49992 h -1.99988 v -5.49992 h -8.00003 v 5.49992 h -1.99988 v -5.49992 h -8.00003 v 5.49992 h -2.00039 v -5.49992 h -8.00003 v 5.49992 h -1.99988 v -5.49992 h -8.00003 v 5.49992 h -1.99987 v -5.49992 h -8.00003 v 5.49992 h -1.99988 v -5.49992 h -8.00003 v 5.49992 h -1.99988 v -5.49992 z" />
      <path
         id="rect1-0-5-5"
         style="fill:none;stroke:#000000;stroke-width:0.1;stroke-dasharray:none;stroke-opacity:1"
         d="m 14.999955,179.50018 v 9.9999 H 344.99995 v -9.9999 h -14.00018 v 5.49992 h -1.99987 v -5.49992 h -8.00003 v 5.49992 h -1.99988 v -5.49992 h -8.00003 v 5.49992 h -1.99988 v -5.49992 h -8.00003 v 5.49992 h -2.00039 v -5.49992 h -7.99951 v 5.49992 h -2.0004 v -5.49992 h -8.00003 v 5.49992 h -1.99987 v -5.49992 h -8.00003 v 5.49992 h -1.99988 v -5.49992 h -8.00003 v 5.49992 h -1.99988 v -5.49992 h -8.00002 v 5.49992 h -1.99988 v -5.49992 h -8.00003 v 5.49992 h -2.0004 v -5.49992 h -7.99951 v 5.49992 h -2.00039 v -5.49992 h -8.00003 v 5.49992 h -1.99988 v -5.49992 h -8.00003 v 5.49992 h -1.99988 v -5.49992 h -8.00002 v 5.49992 h -1.99988 v -5.49992 h -8.00002 v 5.49992 h -1.99988 v -5.49992 h -8.00003 v 5.49992 h -2.00039 v -5.49992 h -8.00003 v 5.49992 h -1.99988 v -5.49992 h -8.00003 v 5.49992 h -1.99987 v -5.49992 h -8.00003 v 5.49992 h -1.99988 v -5.49992 h -8.00003 v 5.49992 h -1.99988 v -5.49992 h -8.00003 v 5.49992 h -2.00039 v -5.49992 h -7.99951 v 5.49992 h -2.0004 v -5.49992 h -8.00003 v 5.49992 h -1.99988 v -5.49992 h -8.00003 v 5.49992 h -1.999865 v -5.49992 h -8.00003 v 5.49992 h -1.99988 v -5.49992 h -8.00003 v 5.49992 h -1.99988 v -5.49992 h -8.00003 v 5.49992 h -2.00038 v -5.49992 h -8.00003 v 5.49992 h -1.99988 v -5.49992 h -8.00003 v 5.49992 h -1.99988 v -5.49992 h -8.00002 v 5.49992 h -1.99988 v -5.49992 h -8.00003 v 5.49992 h -1.99988 v -5.49992 z" />
      <path
         id="rect1-2-7"
         style="fill:none;stroke:#000000;stroke-width:0.1;stroke-dasharray:none;stroke-opacity:1"
         d="M 14.999931,195.0001 V 205 H 344.99994 v -9.9999 h -14.00018 v 5.49992 h -1.99987 v -5.49992 h -8.00003 v 5.49992 h -1.99988 v -5.49992 h -8.00003 v 5.49992 h -1.99988 v -5.49992 h -8.00003 v 5.49992 h -2.00039 v -5.49992 h -7.99951 v 5.49992 h -2.0004 v -5.49992 h -8.00003 v 5.49992 h -1.99987 v -5.49992 h -8.00003 v 5.49992 h -1.99988 v -5.49992 h -8.00003 v 5.49992 h -1.99988 V 195.0001 H 251 v 5.49992 h -1.99988 v -5.49992 h -8.00003 v 5.49992 h -2.0004 v -5.49992 h -7.99951 v 5.49992 h -2.00039 v -5.49992 h -8.00003 v 5.49992 h -1.99988 v -5.49992 h -8.00003 v 5.49992 h -1.99988 v -5.49992 h -8.00002 v 5.49992 h -1.99988 v -5.49992 h -8.00003 v 5.49992 h -1.99988 v -5.49992 h -8.00003 v 5.49992 h -2.00039 v -5.49992 h -8.00003 v 5.49992 h -1.99988 v -5.49992 h -8.00003 v 5.49992 h -1.99987 v -5.49992 h -8.00003 v 5.49992 h -1.99988 v -5.49992 h -8.00003 v 5.49992 h -1.99988 v -5.49992 h -8.00003 v 5.49992 h -2.00039 v -5.49992 h -7.99951 v 5.49992 h -2.0004 v -5.49992 h -8.00003 v 5.49992 h -1.99988 v -5.49992 h -8.00003 v 5.49992 h -1.999869 v -5.49992 h -8.00003 v 5.49992 h -1.99988 v -5.49992 h -8.00003 v 5.49992 h -1.99988 v -5.49992 h -8.00003 v 5.49992 h -2.00039 v -5.49992 h -8.00003 v 5.49992 h -1.99988 v -5.49992 h -8.00003 v 5.49992 h -1.99987 v -5.49992 h -8.00003 v 5.49992 h -1.99988 v -5.49992 h -8.00003 v 5.49992 h -1.99988 v -5.49992 z" />
      <path
         id="rect1-0-7-7"
         style="fill:none;stroke:#000000;stroke-width:0.1;stroke-dasharray:none;stroke-opacity:1"
         d="m 14.999741,209.50018 v 9.9999 H 344.99974 v -9.9999 h -14.00018 v 5.49992 h -1.99987 v -5.49992 h -8.00003 v 5.49992 h -1.99988 v -5.49992 h -8.00003 v 5.49992 h -1.99988 v -5.49992 h -8.00003 v 5.49992 h -2.00039 v -5.49992 h -7.99951 v 5.49992 h -2.0004 v -5.49992 h -8.00003 v 5.49992 h -1.99987 v -5.49992 h -8.00003 v 5.49992 h -1.99988 v -5.49992 h -8.00003 v 5.49992 h -1.99988 v -5.49992 h -8.00002 v 5.49992 h -1.99988 v -5.49992 h -8.00003 v 5.49992 h -2.0004 v -5.49992 h -7.99951 v 5.49992 h -2.00039 v -5.49992 h -8.00003 v 5.49992 h -1.99988 v -5.49992 h -8.00003 v 5.49992 h -1.99988 v -5.49992 h -8.00002 v 5.49992 h -1.99988 v -5.49992 h -8.00002 v 5.49992 h -1.99988 v -5.49992 h -8.00003 v 5.49992 h -2.00039 v -5.49992 h -8.00003 v 5.49992 h -1.99988 v -5.49992 h -8.00003 v 5.49992 h -1.99987 v -5.49992 h -8.00003 v 5.49992 h -1.99988 v -5.49992 h -8.00003 v 5.49992 h -1.99988 v -5.49992 h -8.00003 v 5.49992 h -2.00039 v -5.49992 h -7.99951 v 5.49992 h -2.0004 v -5.49992 h -8.00003 v 5.49992 h -1.99988 v -5.49992 h -8.00003 v 5.49992 h -1.999869 v -5.49992 h -8.00003 v 5.49992 h -1.99988 v -5.49992 h -8.00003 v 5.49992 h -1.99988 v -5.49992 h -8.00003 v 5.49992 h -2.00039 v -5.49992 h -8.00003 v 5.49992 h -1.99988 v -5.49992 h -8.00003 v 5.49992 h -1.99987 v -5.49992 h -8.00003 v 5.49992 h -1.99988 v -5.49992 h -8.00003 v 5.49992 h -1.99988 v -5.49992 z" />
      <path
         id="rect1-5-3-9"
         style="fill:none;stroke:#000000;stroke-width:0.1;stroke-dasharray:none;stroke-opacity:1"
         d="M 15.000071,225.0001 V 235 H 345.00008 v -9.9999 H 330.9999 v 5.49992 h -1.99987 V 225.0001 H 321 v 5.49992 h -1.99988 v -5.49992 h -8.00003 v 5.49992 h -1.99988 v -5.49992 h -8.00003 v 5.49992 h -2.00039 v -5.49992 h -7.99951 v 5.49992 h -2.0004 v -5.49992 h -8.00003 v 5.49992 h -1.99987 v -5.49992 h -8.00003 v 5.49992 h -1.99988 v -5.49992 h -8.00003 v 5.49992 h -1.99988 v -5.49992 h -8.00002 v 5.49992 h -1.99988 v -5.49992 h -8.00003 v 5.49992 h -2.0004 v -5.49992 h -7.99951 v 5.49992 h -2.00039 v -5.49992 h -8.00003 v 5.49992 h -1.99988 v -5.49992 h -8.00003 v 5.49992 h -1.99988 v -5.49992 h -8.00002 v 5.49992 h -1.99988 v -5.49992 h -8.00003 v 5.49992 h -1.99988 v -5.49992 h -8.00003 v 5.49992 h -2.00039 v -5.49992 h -8.00003 v 5.49992 h -1.99988 v -5.49992 h -8.00003 v 5.49992 h -1.99987 v -5.49992 h -8.00003 v 5.49992 h -1.99988 v -5.49992 h -8.00003 v 5.49992 h -1.99988 v -5.49992 h -8.00003 v 5.49992 h -2.00039 v -5.49992 h -7.99951 v 5.49992 h -2.0004 v -5.49992 h -8.00003 v 5.49992 h -1.99988 v -5.49992 h -8.00003 v 5.49992 h -1.999859 v -5.49992 h -8.00003 v 5.49992 h -1.99988 v -5.49992 h -8.00003 v 5.49992 h -1.99988 v -5.49992 h -8.00003 v 5.49992 h -2.00039 v -5.49992 h -8.00003 v 5.49992 h -1.99988 v -5.49992 h -8.00003 v 5.49992 h -1.99987 v -5.49992 h -8.00003 v 5.49992 h -1.99988 v -5.49992 h -8.00003 v 5.49992 h -1.99988 v -5.49992 z" />
      <path
         id="rect1-0-5-8-2"
         style="fill:none;stroke:#000000;stroke-width:0.1;stroke-dasharray:none;stroke-opacity:1"
         d="m 14.999881,239.50018 v 9.9999 H 344.99988 v -9.9999 H 330.9997 v 5.49992 h -1.99987 v -5.49992 h -8.00003 v 5.49992 h -1.99988 v -5.49992 h -8.00003 v 5.49992 h -1.99988 v -5.49992 h -8.00003 v 5.49992 h -2.00039 v -5.49992 h -7.99951 v 5.49992 h -2.0004 v -5.49992 h -8.00003 v 5.49992 h -1.99987 v -5.49992 h -8.00003 v 5.49992 h -1.99988 v -5.49992 h -8.00003 v 5.49992 h -1.99988 v -5.49992 h -8.00002 v 5.49992 h -1.99988 v -5.49992 h -8.00003 v 5.49992 h -2.0004 v -5.49992 h -7.99951 v 5.49992 h -2.00039 v -5.49992 h -8.00003 v 5.49992 h -1.99988 v -5.49992 h -8.00003 v 5.49992 h -1.99988 v -5.49992 h -8.00002 v 5.49992 h -1.99988 v -5.49992 h -8.00002 v 5.49992 h -1.99988 v -5.49992 h -8.00003 v 5.49992 h -2.00039 v -5.49992 h -8.00003 v 5.49992 h -1.99988 v -5.49992 h -8.00003 v 5.49992 h -1.99987 v -5.49992 h -8.00003 v 5.49992 h -1.99988 v -5.49992 h -8.00003 v 5.49992 h -1.99988 v -5.49992 h -8.00003 v 5.49992 h -2.00039 v -5.49992 h -7.99951 v 5.49992 h -2.0004 v -5.49992 h -8.00003 v 5.49992 h -1.99988 v -5.49992 h -8.00003 v 5.49992 h -1.999869 v -5.49992 h -8.00003 v 5.49992 h -1.99988 v -5.49992 h -8.00003 v 5.49992 h -1.99988 v -5.49992 h -8.00003 v 5.49992 h -2.00038 v -5.49992 h -8.00003 v 5.49992 h -1.99988 v -5.49992 h -8.00003 v 5.49992 h -1.99988 v -5.49992 h -8.00002 v 5.49992 h -1.99988 v -5.49992 h -8.00003 v 5.49992 h -1.99988 v -5.49992 z" />
      <path
         id="rect1-4"
         style="fill:none;stroke:#000000;stroke-width:0.1;stroke-dasharray:none;stroke-opacity:1"
         d="M 15,255.00009 V 265 h 169.99996 v -9.99991 h -9.25008 v 1.99988 h -3.99976 v -1.99988 h -0.75034 v 5.49992 h -1.99988 v -5.49992 h -3.24993 v 1.99988 h -3.99975 v -1.99988 h -0.75035 v 5.49992 H 159 v -5.49992 h -3.24993 v 1.99988 h -4.00028 v -1.99988 h -0.74982 v 5.49992 h -1.99988 v -5.49992 h -3.24993 v 1.99988 h -4.00027 v -1.99988 h -0.74983 v 5.49992 h -1.99988 v -5.49992 h -3.24993 v 1.99988 h -4.00027 v -1.99988 h -0.74983 v 5.49992 h -2.00039 v -5.49992 h -3.24993 v 1.99988 h -3.99976 v -1.99988 h -0.74982 v 5.49992 h -2.0004 v -5.49992 h -3.24993 v 1.99988 h -3.99975 v -1.99988 h -0.75035 v 5.49992 h -1.99987 v -5.49992 h -3.24994 v 1.99988 h -4.00027 v -1.99988 h -0.74982 v 5.49992 h -1.99988 v -5.49992 h -3.24993 v 1.99988 h -4.00027 v -1.99988 h -0.74983 v 5.49992 h -1.99988 v -5.49992 H 85.7502 v 1.99988 h -4.00027 v -1.99988 h -0.74982 v 5.49992 h -1.99988 v -5.49992 h -3.25045 v 1.99988 h -3.99976 v -1.99988 H 71.0002 v 5.49992 h -2.0004 v -5.49992 h -3.24993 v 1.99988 h -3.99975 v -1.99988 h -0.75034 v 5.49992 H 58.9999 v -5.49992 h -3.24993 v 1.99988 h -3.99976 v -1.99988 h -0.75034 v 5.49992 h -1.99988 v -5.49992 h -3.24993 v 1.99988 h -4.00027 v -1.99988 h -0.74983 v 5.49992 h -1.99987 v -5.49992 h -3.24994 v 1.99988 h -4.00027 v -1.99988 h -0.74982 v 5.49992 h -1.99988 v -5.49992 h -3.24993 v 1.99988 h -4.00028 v -1.99988 z" />
      <path
         id="rect1-4-9"
         style="fill:none;stroke:#000000;stroke-width:0.1;stroke-dasharray:none;stroke-opacity:1"
         d="M 195.53682,255.00009 V 265 h 169.99996 v -9.99991 h -9.25008 v 1.99988 h -3.99976 v -1.99988 h -0.75034 v 5.49992 h -1.99988 v -5.49992 h -3.24993 v 1.99988 h -3.99975 v -1.99988 h -0.75035 v 5.49992 h -1.99987 v -5.49992 h -3.24993 v 1.99988 h -4.00028 v -1.99988 h -0.74982 v 5.49992 h -1.99988 v -5.49992 h -3.24993 v 1.99988 h -4.00027 v -1.99988 h -0.74983 v 5.49992 H 319.537 v -5.49992 h -3.24993 v 1.99988 h -4.00027 v -1.99988 h -0.74983 v 5.49992 h -2.00039 v -5.49992 h -3.24993 v 1.99988 h -3.99976 v -1.99988 h -0.74982 v 5.49992 h -2.0004 v -5.49992 h -3.24993 v 1.99988 h -3.99975 v -1.99988 h -0.75035 v 5.49992 h -1.99987 v -5.49992 h -3.24994 v 1.99988 h -4.00027 v -1.99988 h -0.74982 v 5.49992 h -1.99988 v -5.49992 h -3.24993 v 1.99988 h -4.00027 v -1.99988 h -0.74983 v 5.49992 h -1.99988 v -5.49992 h -3.24993 v 1.99988 h -4.00027 v -1.99988 h -0.74982 v 5.49992 h -1.99988 v -5.49992 h -3.25045 v 1.99988 h -3.99976 v -1.99988 h -0.74982 v 5.49992 h -2.0004 v -5.49992 h -3.24993 v 1.99988 h -3.99975 v -1.99988 h -0.75034 v 5.49992 h -1.99988 v -5.49992 h -3.24993 v 1.99988 h -3.99976 v -1.99988 h -0.75034 v 5.49992 h -1.99988 v -5.49992 h -3.24993 v 1.99988 h -4.00027 v -1.99988 h -0.74983 v 5.49992 h -1.99987 v -5.49992 h -3.24994 v 1.99988 h -4.00027 v -1.99988 h -0.74982 v 5.49992 H 209.537 v -5.49992 h -3.24993 v 1.99988 h -4.00028 v -1.99988 z" />
      <path
         id="rect1-4-5"
         style="fill:none;stroke:#000000;stroke-width:0.1;stroke-dasharray:none;stroke-opacity:1"
         d="m 15,270 v 9.99991 H 184.99996 V 270 h -9.25008 v 1.99988 h -3.99976 V 270 h -0.75034 v 5.49992 H 168.9999 V 270 h -3.24993 v 1.99988 h -3.99975 V 270 h -0.75035 v 5.49992 H 159 V 270 h -3.24993 v 1.99988 h -4.00028 V 270 h -0.74982 v 5.49992 h -1.99988 V 270 h -3.24993 v 1.99988 h -4.00027 V 270 h -0.74983 v 5.49992 h -1.99988 V 270 h -3.24993 v 1.99988 h -4.00027 V 270 h -0.74983 v 5.49992 h -2.00039 V 270 h -3.24993 v 1.99988 h -3.99976 V 270 h -0.74982 v 5.49992 h -2.0004 V 270 h -3.24993 v 1.99988 h -3.99975 V 270 h -0.75035 v 5.49992 h -1.99987 V 270 h -3.24994 v 1.99988 h -4.00027 V 270 h -0.74982 v 5.49992 H 99.00004 V 270 h -3.24993 v 1.99988 H 91.74984 V 270 h -0.74983 v 5.49992 H 89.00013 V 270 H 85.7502 v 1.99988 H 81.74993 V 270 h -0.74982 v 5.49992 H 79.00023 V 270 h -3.25045 v 1.99988 H 71.75002 V 270 H 71.0002 v 5.49992 H 68.9998 V 270 h -3.24993 v 1.99988 H 61.75012 V 270 h -0.75034 v 5.49992 H 58.9999 V 270 h -3.24993 v 1.99988 H 51.75021 V 270 h -0.75034 v 5.49992 H 48.99999 V 270 h -3.24993 v 1.99988 H 41.74979 V 270 h -0.74983 v 5.49992 H 39.00009 V 270 h -3.24994 v 1.99988 H 31.74988 V 270 h -0.74982 v 5.49992 H 29.00018 V 270 h -3.24993 v 1.99988 H 21.74997 V 270 Z" />
      <path
         id="rect1-4-9-1"
         style="fill:none;stroke:#000000;stroke-width:0.1;stroke-dasharray:none;stroke-opacity:1"
         d="m 195.53682,270 v 9.99991 H 365.53678 V 270 h -9.25008 v 1.99988 h -3.99976 V 270 h -0.75034 v 5.49992 h -1.99988 V 270 h -3.24993 v 1.99988 h -3.99975 V 270 h -0.75035 v 5.49992 h -1.99987 V 270 h -3.24993 v 1.99988 h -4.00028 V 270 h -0.74982 v 5.49992 h -1.99988 V 270 h -3.24993 v 1.99988 h -4.00027 V 270 h -0.74983 v 5.49992 H 319.537 V 270 h -3.24993 v 1.99988 H 312.2868 V 270 h -0.74983 v 5.49992 h -2.00039 V 270 h -3.24993 v 1.99988 h -3.99976 V 270 h -0.74982 v 5.49992 h -2.0004 V 270 h -3.24993 v 1.99988 h -3.99975 V 270 h -0.75035 v 5.49992 h -1.99987 V 270 h -3.24994 v 1.99988 h -4.00027 V 270 h -0.74982 v 5.49992 h -1.99988 V 270 h -3.24993 v 1.99988 h -4.00027 V 270 h -0.74983 v 5.49992 h -1.99988 V 270 h -3.24993 v 1.99988 h -4.00027 V 270 h -0.74982 v 5.49992 h -1.99988 V 270 h -3.25045 v 1.99988 h -3.99976 V 270 h -0.74982 v 5.49992 h -2.0004 V 270 h -3.24993 v 1.99988 h -3.99975 V 270 h -0.75034 v 5.49992 h -1.99988 V 270 h -3.24993 v 1.99988 h -3.99976 V 270 h -0.75034 v 5.49992 h -1.99988 V 270 h -3.24993 v 1.99988 h -4.00027 V 270 h -0.74983 v 5.49992 h -1.99987 V 270 h -3.24994 v 1.99988 H 212.2867 V 270 h -0.74982 v 5.49992 H 209.537 V 270 h -3.24993 v 1.99988 h -4.00028 V 270 Z" />
      <path
         id="rect1-4-7"
         style="fill:none;stroke:#000000;stroke-width:0.1;stroke-dasharray:none;stroke-opacity:1"
         d="M 15,285.00009 V 295 h 169.99996 v -9.99991 h -9.25008 v 1.99988 h -3.99976 v -1.99988 h -0.75034 v 5.49992 h -1.99988 v -5.49992 h -3.24993 v 1.99988 h -3.99975 v -1.99988 h -0.75035 v 5.49992 H 159 v -5.49992 h -3.24993 v 1.99988 h -4.00028 v -1.99988 h -0.74982 v 5.49992 h -1.99988 v -5.49992 h -3.24993 v 1.99988 h -4.00027 v -1.99988 h -0.74983 v 5.49992 h -1.99988 v -5.49992 h -3.24993 v 1.99988 h -4.00027 v -1.99988 h -0.74983 v 5.49992 h -2.00039 v -5.49992 h -3.24993 v 1.99988 h -3.99976 v -1.99988 h -0.74982 v 5.49992 h -2.0004 v -5.49992 h -3.24993 v 1.99988 h -3.99975 v -1.99988 h -0.75035 v 5.49992 h -1.99987 v -5.49992 h -3.24994 v 1.99988 h -4.00027 v -1.99988 h -0.74982 v 5.49992 h -1.99988 v -5.49992 h -3.24993 v 1.99988 h -4.00027 v -1.99988 h -0.74983 v 5.49992 h -1.99988 v -5.49992 H 85.7502 v 1.99988 h -4.00027 v -1.99988 h -0.74982 v 5.49992 h -1.99988 v -5.49992 h -3.25045 v 1.99988 h -3.99976 v -1.99988 H 71.0002 v 5.49992 h -2.0004 v -5.49992 h -3.24993 v 1.99988 h -3.99975 v -1.99988 h -0.75034 v 5.49992 H 58.9999 v -5.49992 h -3.24993 v 1.99988 h -3.99976 v -1.99988 h -0.75034 v 5.49992 h -1.99988 v -5.49992 h -3.24993 v 1.99988 h -4.00027 v -1.99988 h -0.74983 v 5.49992 h -1.99987 v -5.49992 h -3.24994 v 1.99988 h -4.00027 v -1.99988 h -0.74982 v 5.49992 h -1.99988 v -5.49992 h -3.24993 v 1.99988 h -4.00028 v -1.99988 z" />
      <path
         id="rect1-4-9-6"
         style="fill:none;stroke:#000000;stroke-width:0.1;stroke-dasharray:none;stroke-opacity:1"
         d="M 195.53682,285.00009 V 295 h 169.99996 v -9.99991 h -9.25008 v 1.99988 h -3.99976 v -1.99988 h -0.75034 v 5.49992 h -1.99988 v -5.49992 h -3.24993 v 1.99988 h -3.99975 v -1.99988 h -0.75035 v 5.49992 h -1.99987 v -5.49992 h -3.24993 v 1.99988 h -4.00028 v -1.99988 h -0.74982 v 5.49992 h -1.99988 v -5.49992 h -3.24993 v 1.99988 h -4.00027 v -1.99988 h -0.74983 v 5.49992 H 319.537 v -5.49992 h -3.24993 v 1.99988 h -4.00027 v -1.99988 h -0.74983 v 5.49992 h -2.00039 v -5.49992 h -3.24993 v 1.99988 h -3.99976 v -1.99988 h -0.74982 v 5.49992 h -2.0004 v -5.49992 h -3.24993 v 1.99988 h -3.99975 v -1.99988 h -0.75035 v 5.49992 h -1.99987 v -5.49992 h -3.24994 v 1.99988 h -4.00027 v -1.99988 h -0.74982 v 5.49992 h -1.99988 v -5.49992 h -3.24993 v 1.99988 h -4.00027 v -1.99988 h -0.74983 v 5.49992 h -1.99988 v -5.49992 h -3.24993 v 1.99988 h -4.00027 v -1.99988 h -0.74982 v 5.49992 h -1.99988 v -5.49992 h -3.25045 v 1.99988 h -3.99976 v -1.99988 h -0.74982 v 5.49992 h -2.0004 v -5.49992 h -3.24993 v 1.99988 h -3.99975 v -1.99988 h -0.75034 v 5.49992 h -1.99988 v -5.49992 h -3.24993 v 1.99988 h -3.99976 v -1.99988 h -0.75034 v 5.49992 h -1.99988 v -5.49992 h -3.24993 v 1.99988 h -4.00027 v -1.99988 h -0.74983 v 5.49992 h -1.99987 v -5.49992 h -3.24994 v 1.99988 h -4.00027 v -1.99988 h -0.74982 v 5.49992 H 209.537 v -5.49992 h -3.24993 v 1.99988 h -4.00028 v -1.99988 z" />
      <path
         id="rect1-4-5-6"
         style="fill:none;stroke:#000000;stroke-width:0.1;stroke-dasharray:none;stroke-opacity:1"
         d="m 15,300 v 9.99991 H 184.99996 V 300 h -9.25008 v 1.99988 h -3.99976 V 300 h -0.75034 v 5.49992 H 168.9999 V 300 h -3.24993 v 1.99988 h -3.99975 V 300 h -0.75035 v 5.49992 H 159 V 300 h -3.24993 v 1.99988 h -4.00028 V 300 h -0.74982 v 5.49992 h -1.99988 V 300 h -3.24993 v 1.99988 h -4.00027 V 300 h -0.74983 v 5.49992 h -1.99988 V 300 h -3.24993 v 1.99988 h -4.00027 V 300 h -0.74983 v 5.49992 h -2.00039 V 300 h -3.24993 v 1.99988 h -3.99976 V 300 h -0.74982 v 5.49992 h -2.0004 V 300 h -3.24993 v 1.99988 h -3.99975 V 300 h -0.75035 v 5.49992 h -1.99987 V 300 h -3.24994 v 1.99988 h -4.00027 V 300 h -0.74982 v 5.49992 H 99.00004 V 300 h -3.24993 v 1.99988 H 91.74984 V 300 h -0.74983 v 5.49992 H 89.00013 V 300 H 85.7502 v 1.99988 H 81.74993 V 300 h -0.74982 v 5.49992 H 79.00023 V 300 h -3.25045 v 1.99988 H 71.75002 V 300 H 71.0002 v 5.49992 H 68.9998 V 300 h -3.24993 v 1.99988 H 61.75012 V 300 h -0.75034 v 5.49992 H 58.9999 V 300 h -3.24993 v 1.99988 H 51.75021 V 300 h -0.75034 v 5.49992 H 48.99999 V 300 h -3.24993 v 1.99988 H 41.74979 V 300 h -0.74983 v 5.49992 H 39.00009 V 300 h -3.24994 v 1.99988 H 31.74988 V 300 h -0.74982 v 5.49992 H 29.00018 V 300 h -3.24993 v 1.99988 H 21.74997 V 300 Z" />
      <path
         id="rect1-4-9-1-5"
         style="fill:none;stroke:#000000;stroke-width:0.1;stroke-dasharray:none;stroke-opacity:1"
         d="m 195.53682,300 v 9.99991 H 365.53678 V 300 h -9.25008 v 1.99988 h -3.99976 V 300 h -0.75034 v 5.49992 h -1.99988 V 300 h -3.24993 v 1.99988 h -3.99975 V 300 h -0.75035 v 5.49992 h -1.99987 V 300 h -3.24993 v 1.99988 h -4.00028 V 300 h -0.74982 v 5.49992 h -1.99988 V 300 h -3.24993 v 1.99988 h -4.00027 V 300 h -0.74983 v 5.49992 H 319.537 V 300 h -3.24993 v 1.99988 H 312.2868 V 300 h -0.74983 v 5.49992 h -2.00039 V 300 h -3.24993 v 1.99988 h -3.99976 V 300 h -0.74982 v 5.49992 h -2.0004 V 300 h -3.24993 v 1.99988 h -3.99975 V 300 h -0.75035 v 5.49992 h -1.99987 V 300 h -3.24994 v 1.99988 h -4.00027 V 300 h -0.74982 v 5.49992 h -1.99988 V 300 h -3.24993 v 1.99988 h -4.00027 V 300 h -0.74983 v 5.49992 h -1.99988 V 300 h -3.24993 v 1.99988 h -4.00027 V 300 h -0.74982 v 5.49992 h -1.99988 V 300 h -3.25045 v 1.99988 h -3.99976 V 300 h -0.74982 v 5.49992 h -2.0004 V 300 h -3.24993 v 1.99988 h -3.99975 V 300 h -0.75034 v 5.49992 h -1.99988 V 300 h -3.24993 v 1.99988 h -3.99976 V 300 h -0.75034 v 5.49992 h -1.99988 V 300 h -3.24993 v 1.99988 h -4.00027 V 300 h -0.74983 v 5.49992 h -1.99987 V 300 h -3.24994 v 1.99988 H 212.2867 V 300 h -0.74982 v 5.49992 H 209.537 V 300 h -3.24993 v 1.99988 h -4.00028 V 300 Z" />
      <path
         id="rect1-4-3"
         style="fill:none;stroke:#000000;stroke-width:0.1;stroke-dasharray:none;stroke-opacity:1"
         d="M 15,315.00009 V 325 h 169.99996 v -9.99991 h -9.25008 v 1.99988 h -3.99976 v -1.99988 h -0.75034 v 5.49992 h -1.99988 v -5.49992 h -3.24993 v 1.99988 h -3.99975 v -1.99988 h -0.75035 v 5.49992 H 159 v -5.49992 h -3.24993 v 1.99988 h -4.00028 v -1.99988 h -0.74982 v 5.49992 h -1.99988 v -5.49992 h -3.24993 v 1.99988 h -4.00027 v -1.99988 h -0.74983 v 5.49992 h -1.99988 v -5.49992 h -3.24993 v 1.99988 h -4.00027 v -1.99988 h -0.74983 v 5.49992 h -2.00039 v -5.49992 h -3.24993 v 1.99988 h -3.99976 v -1.99988 h -0.74982 v 5.49992 h -2.0004 v -5.49992 h -3.24993 v 1.99988 h -3.99975 v -1.99988 h -0.75035 v 5.49992 h -1.99987 v -5.49992 h -3.24994 v 1.99988 h -4.00027 v -1.99988 h -0.74982 v 5.49992 h -1.99988 v -5.49992 h -3.24993 v 1.99988 h -4.00027 v -1.99988 h -0.74983 v 5.49992 h -1.99988 v -5.49992 H 85.7502 v 1.99988 h -4.00027 v -1.99988 h -0.74982 v 5.49992 h -1.99988 v -5.49992 h -3.25045 v 1.99988 h -3.99976 v -1.99988 H 71.0002 v 5.49992 h -2.0004 v -5.49992 h -3.24993 v 1.99988 h -3.99975 v -1.99988 h -0.75034 v 5.49992 H 58.9999 v -5.49992 h -3.24993 v 1.99988 h -3.99976 v -1.99988 h -0.75034 v 5.49992 h -1.99988 v -5.49992 h -3.24993 v 1.99988 h -4.00027 v -1.99988 h -0.74983 v 5.49992 h -1.99987 v -5.49992 h -3.24994 v 1.99988 h -4.00027 v -1.99988 h -0.74982 v 5.49992 h -1.99988 v -5.49992 h -3.24993 v 1.99988 h -4.00028 v -1.99988 z" />
      <path
         id="rect1-4-9-4"
         style="fill:none;stroke:#000000;stroke-width:0.1;stroke-dasharray:none;stroke-opacity:1"
         d="M 195.53682,315.00009 V 325 h 169.99996 v -9.99991 h -9.25008 v 1.99988 h -3.99976 v -1.99988 h -0.75034 v 5.49992 h -1.99988 v -5.49992 h -3.24993 v 1.99988 h -3.99975 v -1.99988 h -0.75035 v 5.49992 h -1.99987 v -5.49992 h -3.24993 v 1.99988 h -4.00028 v -1.99988 h -0.74982 v 5.49992 h -1.99988 v -5.49992 h -3.24993 v 1.99988 h -4.00027 v -1.99988 h -0.74983 v 5.49992 H 319.537 v -5.49992 h -3.24993 v 1.99988 h -4.00027 v -1.99988 h -0.74983 v 5.49992 h -2.00039 v -5.49992 h -3.24993 v 1.99988 h -3.99976 v -1.99988 h -0.74982 v 5.49992 h -2.0004 v -5.49992 h -3.24993 v 1.99988 h -3.99975 v -1.99988 h -0.75035 v 5.49992 h -1.99987 v -5.49992 h -3.24994 v 1.99988 h -4.00027 v -1.99988 h -0.74982 v 5.49992 h -1.99988 v -5.49992 h -3.24993 v 1.99988 h -4.00027 v -1.99988 h -0.74983 v 5.49992 h -1.99988 v -5.49992 h -3.24993 v 1.99988 h -4.00027 v -1.99988 h -0.74982 v 5.49992 h -1.99988 v -5.49992 h -3.25045 v 1.99988 h -3.99976 v -1.99988 h -0.74982 v 5.49992 h -2.0004 v -5.49992 h -3.24993 v 1.99988 h -3.99975 v -1.99988 h -0.75034 v 5.49992 h -1.99988 v -5.49992 h -3.24993 v 1.99988 h -3.99976 v -1.99988 h -0.75034 v 5.49992 h -1.99988 v -5.49992 h -3.24993 v 1.99988 h -4.00027 v -1.99988 h -0.74983 v 5.49992 h -1.99987 v -5.49992 h -3.24994 v 1.99988 h -4.00027 v -1.99988 h -0.74982 v 5.49992 H 209.537 v -5.49992 h -3.24993 v 1.99988 h -4.00028 v -1.99988 z" />
      <path
         id="rect1-4-5-2"
         style="fill:none;stroke:#000000;stroke-width:0.1;stroke-dasharray:none;stroke-opacity:1"
         d="m 15,330 v 9.99991 H 184.99996 V 330 h -9.25008 v 1.99988 h -3.99976 V 330 h -0.75034 v 5.49992 H 168.9999 V 330 h -3.24993 v 1.99988 h -3.99975 V 330 h -0.75035 v 5.49992 H 159 V 330 h -3.24993 v 1.99988 h -4.00028 V 330 h -0.74982 v 5.49992 h -1.99988 V 330 h -3.24993 v 1.99988 h -4.00027 V 330 h -0.74983 v 5.49992 h -1.99988 V 330 h -3.24993 v 1.99988 h -4.00027 V 330 h -0.74983 v 5.49992 h -2.00039 V 330 h -3.24993 v 1.99988 h -3.99976 V 330 h -0.74982 v 5.49992 h -2.0004 V 330 h -3.24993 v 1.99988 h -3.99975 V 330 h -0.75035 v 5.49992 h -1.99987 V 330 h -3.24994 v 1.99988 h -4.00027 V 330 h -0.74982 v 5.49992 H 99.00004 V 330 h -3.24993 v 1.99988 H 91.74984 V 330 h -0.74983 v 5.49992 H 89.00013 V 330 H 85.7502 v 1.99988 H 81.74993 V 330 h -0.74982 v 5.49992 H 79.00023 V 330 h -3.25045 v 1.99988 H 71.75002 V 330 H 71.0002 v 5.49992 H 68.9998 V 330 h -3.24993 v 1.99988 H 61.75012 V 330 h -0.75034 v 5.49992 H 58.9999 V 330 h -3.24993 v 1.99988 H 51.75021 V 330 h -0.75034 v 5.49992 H 48.99999 V 330 h -3.24993 v 1.99988 H 41.74979 V 330 h -0.74983 v 5.49992 H 39.00009 V 330 h -3.24994 v 1.99988 H 31.74988 V 330 h -0.74982 v 5.49992 H 29.00018 V 330 h -3.24993 v 1.99988 H 21.74997 V 330 Z" />
      <path
         id="rect1-4-9-1-1"
         style="fill:none;stroke:#000000;stroke-width:0.1;stroke-dasharray:none;stroke-opacity:1"
         d="m 195.53682,330 v 9.99991 H 365.53678 V 330 h -9.25008 v 1.99988 h -3.99976 V 330 h -0.75034 v 5.49992 h -1.99988 V 330 h -3.24993 v 1.99988 h -3.99975 V 330 h -0.75035 v 5.49992 h -1.99987 V 330 h -3.24993 v 1.99988 h -4.00028 V 330 h -0.74982 v 5.49992 h -1.99988 V 330 h -3.24993 v 1.99988 h -4.00027 V 330 h -0.74983 v 5.49992 H 319.537 V 330 h -3.24993 v 1.99988 H 312.2868 V 330 h -0.74983 v 5.49992 h -2.00039 V 330 h -3.24993 v 1.99988 h -3.99976 V 330 h -0.74982 v 5.49992 h -2.0004 V 330 h -3.24993 v 1.99988 h -3.99975 V 330 h -0.75035 v 5.49992 h -1.99987 V 330 h -3.24994 v 1.99988 h -4.00027 V 330 h -0.74982 v 5.49992 h -1.99988 V 330 h -3.24993 v 1.99988 h -4.00027 V 330 h -0.74983 v 5.49992 h -1.99988 V 330 h -3.24993 v 1.99988 h -4.00027 V 330 h -0.74982 v 5.49992 h -1.99988 V 330 h -3.25045 v 1.99988 h -3.99976 V 330 h -0.74982 v 5.49992 h -2.0004 V 330 h -3.24993 v 1.99988 h -3.99975 V 330 h -0.75034 v 5.49992 h -1.99988 V 330 h -3.24993 v 1.99988 h -3.99976 V 330 h -0.75034 v 5.49992 h -1.99988 V 330 h -3.24993 v 1.99988 h -4.00027 V 330 h -0.74983 v 5.49992 h -1.99987 V 330 h -3.24994 v 1.99988 H 212.2867 V 330 h -0.74982 v 5.49992 H 209.537 V 330 h -3.24993 v 1.99988 h -4.00028 V 330 Z" />
      <path
         id="rect1-4-75"
         style="fill:none;stroke:#000000;stroke-width:0.1;stroke-dasharray:none;stroke-opacity:1"
         d="m 15.000035,345 v 9.99991 H 185 V 345 h -9.25008 v 1.99988 h -3.99976 V 345 h -0.75034 v 5.49992 h -1.99988 V 345 h -3.24993 v 1.99988 h -3.99975 V 345 h -0.75035 v 5.49992 h -1.99987 V 345 h -3.24993 v 1.99988 h -4.00028 V 345 h -0.74982 v 5.49992 h -1.99988 V 345 h -3.24993 v 1.99988 h -4.00027 V 345 h -0.74983 v 5.49992 h -1.99988 V 345 h -3.24993 v 1.99988 h -4.00027 V 345 h -0.74983 v 5.49992 H 128.9998 V 345 h -3.24993 v 1.99988 h -3.99976 V 345 h -0.74982 v 5.49992 h -2.0004 V 345 h -3.24993 v 1.99988 h -3.99975 V 345 h -0.75035 v 5.49992 h -1.99987 V 345 h -3.24994 v 1.99988 h -4.00027 V 345 h -0.74982 v 5.49992 H 99.000075 V 345 h -3.24993 v 1.99988 h -4.00027 V 345 h -0.74983 v 5.49992 h -1.99988 V 345 h -3.24993 v 1.99988 h -4.00027 V 345 h -0.74982 v 5.49992 h -1.99988 V 345 h -3.25045 v 1.99988 h -3.99976 V 345 h -0.74982 v 5.49992 h -2.0004 V 345 h -3.24993 v 1.99988 h -3.99975 V 345 h -0.75034 v 5.49992 h -1.99988 V 345 h -3.24993 v 1.99988 h -3.99976 V 345 h -0.75034 v 5.49992 h -1.99988 V 345 h -3.24993 v 1.99988 h -4.00027 V 345 h -0.74983 v 5.49992 h -1.99987 V 345 h -3.24994 v 1.99988 h -4.00027 V 345 h -0.74982 v 5.49992 h -1.99988 V 345 h -3.24993 v 1.99988 h -4.00028 V 345 Z" />
      <path
         id="rect1-4-9-2"
         style="fill:none;stroke:#000000;stroke-width:0.1;stroke-dasharray:none;stroke-opacity:1"
         d="m 195.53686,345 v 9.99991 H 365.53682 V 345 h -9.25008 v 1.99988 h -3.99976 V 345 h -0.75034 v 5.49992 h -1.99988 V 345 h -3.24993 v 1.99988 h -3.99975 V 345 h -0.75035 v 5.49992 h -1.99987 V 345 h -3.24993 v 1.99988 h -4.00028 V 345 h -0.74982 v 5.49992 h -1.99988 V 345 h -3.24993 v 1.99988 h -4.00027 V 345 h -0.74983 v 5.49992 h -1.99988 V 345 h -3.24993 v 1.99988 h -4.00027 V 345 h -0.74983 v 5.49992 h -2.00039 V 345 h -3.24993 v 1.99988 h -3.99976 V 345 h -0.74982 v 5.49992 h -2.0004 V 345 h -3.24993 v 1.99988 h -3.99975 V 345 h -0.75035 v 5.49992 h -1.99987 V 345 h -3.24994 v 1.99988 H 282.2866 V 345 h -0.74982 v 5.49992 H 279.5369 V 345 h -3.24993 v 1.99988 H 272.2867 V 345 h -0.74983 v 5.49992 h -1.99988 V 345 h -3.24993 v 1.99988 h -4.00027 V 345 h -0.74982 v 5.49992 h -1.99988 V 345 h -3.25045 v 1.99988 h -3.99976 V 345 h -0.74982 v 5.49992 h -2.0004 V 345 h -3.24993 v 1.99988 h -3.99975 V 345 h -0.75034 v 5.49992 h -1.99988 V 345 h -3.24993 v 1.99988 h -3.99976 V 345 h -0.75034 v 5.49992 h -1.99988 V 345 h -3.24993 v 1.99988 h -4.00027 V 345 h -0.74983 v 5.49992 h -1.99987 V 345 h -3.24994 v 1.99988 h -4.00027 V 345 h -0.74982 v 5.49992 h -1.99988 V 345 h -3.24993 v 1.99988 h -4.00028 V 345 Z" />
      <path
         id="rect1-4-5-4"
         style="fill:none;stroke:#000000;stroke-width:0.1;stroke-dasharray:none;stroke-opacity:1"
         d="m 15.000035,359.99991 v 9.99991 H 185 v -9.99991 h -9.25008 v 1.99988 h -3.99976 v -1.99988 h -0.75034 v 5.49992 h -1.99988 v -5.49992 h -3.24993 v 1.99988 h -3.99975 v -1.99988 h -0.75035 v 5.49992 h -1.99987 v -5.49992 h -3.24993 v 1.99988 h -4.00028 v -1.99988 h -0.74982 v 5.49992 h -1.99988 v -5.49992 h -3.24993 v 1.99988 h -4.00027 v -1.99988 h -0.74983 v 5.49992 h -1.99988 v -5.49992 h -3.24993 v 1.99988 h -4.00027 v -1.99988 h -0.74983 v 5.49992 h -2.00039 v -5.49992 h -3.24993 v 1.99988 h -3.99976 v -1.99988 h -0.74982 v 5.49992 h -2.0004 v -5.49992 h -3.24993 v 1.99988 h -3.99975 v -1.99988 h -0.75035 v 5.49992 h -1.99987 v -5.49992 h -3.24994 v 1.99988 h -4.00027 v -1.99988 h -0.74982 v 5.49992 h -1.999885 v -5.49992 h -3.24993 v 1.99988 h -4.00027 v -1.99988 h -0.74983 v 5.49992 h -1.99988 v -5.49992 h -3.24993 v 1.99988 h -4.00027 v -1.99988 h -0.74982 v 5.49992 h -1.99988 v -5.49992 h -3.25045 v 1.99988 h -3.99976 v -1.99988 h -0.74982 v 5.49992 h -2.0004 v -5.49992 h -3.24993 v 1.99988 h -3.99975 v -1.99988 h -0.75034 v 5.49992 h -1.99988 v -5.49992 h -3.24993 v 1.99988 h -3.99976 v -1.99988 h -0.75034 v 5.49992 h -1.99988 v -5.49992 h -3.24993 v 1.99988 h -4.00027 v -1.99988 h -0.74983 v 5.49992 h -1.99987 v -5.49992 h -3.24994 v 1.99988 h -4.00027 v -1.99988 h -0.74982 v 5.49992 h -1.99988 v -5.49992 h -3.24993 v 1.99988 h -4.00028 v -1.99988 z" />
      <path
         id="rect1-4-9-1-7"
         style="fill:none;stroke:#000000;stroke-width:0.1;stroke-dasharray:none;stroke-opacity:1"
         d="m 195.53686,359.99991 v 9.99991 h 169.99996 v -9.99991 h -9.25008 v 1.99988 h -3.99976 v -1.99988 h -0.75034 v 5.49992 h -1.99988 v -5.49992 h -3.24993 v 1.99988 h -3.99975 v -1.99988 h -0.75035 v 5.49992 h -1.99987 v -5.49992 h -3.24993 v 1.99988 h -4.00028 v -1.99988 h -0.74982 v 5.49992 h -1.99988 v -5.49992 h -3.24993 v 1.99988 h -4.00027 v -1.99988 h -0.74983 v 5.49992 h -1.99988 v -5.49992 h -3.24993 v 1.99988 h -4.00027 v -1.99988 h -0.74983 v 5.49992 h -2.00039 v -5.49992 h -3.24993 v 1.99988 h -3.99976 v -1.99988 h -0.74982 v 5.49992 h -2.0004 v -5.49992 h -3.24993 v 1.99988 h -3.99975 v -1.99988 h -0.75035 v 5.49992 h -1.99987 v -5.49992 h -3.24994 v 1.99988 h -4.00027 v -1.99988 h -0.74982 v 5.49992 h -1.99988 v -5.49992 h -3.24993 v 1.99988 h -4.00027 v -1.99988 h -0.74983 v 5.49992 h -1.99988 v -5.49992 h -3.24993 v 1.99988 h -4.00027 v -1.99988 h -0.74982 v 5.49992 h -1.99988 v -5.49992 h -3.25045 v 1.99988 h -3.99976 v -1.99988 h -0.74982 v 5.49992 h -2.0004 v -5.49992 h -3.24993 v 1.99988 h -3.99975 v -1.99988 h -0.75034 v 5.49992 h -1.99988 v -5.49992 h -3.24993 v 1.99988 h -3.99976 v -1.99988 h -0.75034 v 5.49992 h -1.99988 v -5.49992 h -3.24993 v 1.99988 h -4.00027 v -1.99988 h -0.74983 v 5.49992 h -1.99987 v -5.49992 h -3.24994 v 1.99988 h -4.00027 v -1.99988 h -0.74982 v 5.49992 h -1.99988 v -5.49992 h -3.24993 v 1.99988 h -4.00028 v -1.99988 z" />
      <path
         id="rect1-4-4"
         style="fill:none;stroke:#000000;stroke-width:0.1;stroke-dasharray:none;stroke-opacity:1"
         d="m 15,375.0001 v 9.99991 h 169.99996 v -9.99991 h -9.25008 v 1.99988 h -3.99976 v -1.99988 h -0.75034 v 5.49992 h -1.99988 v -5.49992 h -3.24993 v 1.99988 h -3.99975 v -1.99988 h -0.75035 v 5.49992 H 159 v -5.49992 h -3.24993 v 1.99988 h -4.00028 v -1.99988 h -0.74982 v 5.49992 h -1.99988 v -5.49992 h -3.24993 v 1.99988 h -4.00027 v -1.99988 h -0.74983 v 5.49992 h -1.99988 v -5.49992 h -3.24993 v 1.99988 h -4.00027 v -1.99988 h -0.74983 v 5.49992 h -2.00039 v -5.49992 h -3.24993 v 1.99988 h -3.99976 v -1.99988 h -0.74982 v 5.49992 h -2.0004 v -5.49992 h -3.24993 v 1.99988 h -3.99975 v -1.99988 h -0.75035 v 5.49992 h -1.99987 v -5.49992 h -3.24994 v 1.99988 h -4.00027 v -1.99988 h -0.74982 v 5.49992 h -1.99988 v -5.49992 h -3.24993 v 1.99988 h -4.00027 v -1.99988 h -0.74983 v 5.49992 H 89.00013 V 375.0001 H 85.7502 v 1.99988 h -4.00027 v -1.99988 h -0.74982 v 5.49992 h -1.99988 v -5.49992 h -3.25045 v 1.99988 H 71.75002 V 375.0001 H 71.0002 v 5.49992 h -2.0004 v -5.49992 h -3.24993 v 1.99988 h -3.99975 v -1.99988 h -0.75034 v 5.49992 H 58.9999 v -5.49992 h -3.24993 v 1.99988 h -3.99976 v -1.99988 h -0.75034 v 5.49992 h -1.99988 v -5.49992 h -3.24993 v 1.99988 h -4.00027 v -1.99988 h -0.74983 v 5.49992 h -1.99987 v -5.49992 h -3.24994 v 1.99988 h -4.00027 v -1.99988 h -0.74982 v 5.49992 h -1.99988 v -5.49992 h -3.24993 v 1.99988 h -4.00028 v -1.99988 z" />
      <path
         id="rect1-4-9-7"
         style="fill:none;stroke:#000000;stroke-width:0.1;stroke-dasharray:none;stroke-opacity:1"
         d="m 195.53682,375.0001 v 9.99991 h 169.99996 v -9.99991 h -9.25008 v 1.99988 h -3.99976 v -1.99988 h -0.75034 v 5.49992 h -1.99988 v -5.49992 h -3.24993 v 1.99988 h -3.99975 v -1.99988 h -0.75035 v 5.49992 h -1.99987 v -5.49992 h -3.24993 v 1.99988 h -4.00028 v -1.99988 h -0.74982 v 5.49992 h -1.99988 v -5.49992 h -3.24993 v 1.99988 h -4.00027 v -1.99988 h -0.74983 v 5.49992 H 319.537 v -5.49992 h -3.24993 v 1.99988 h -4.00027 v -1.99988 h -0.74983 v 5.49992 h -2.00039 v -5.49992 h -3.24993 v 1.99988 h -3.99976 v -1.99988 h -0.74982 v 5.49992 h -2.0004 v -5.49992 h -3.24993 v 1.99988 h -3.99975 v -1.99988 h -0.75035 v 5.49992 h -1.99987 v -5.49992 h -3.24994 v 1.99988 h -4.00027 v -1.99988 h -0.74982 v 5.49992 h -1.99988 v -5.49992 h -3.24993 v 1.99988 h -4.00027 v -1.99988 h -0.74983 v 5.49992 h -1.99988 v -5.49992 h -3.24993 v 1.99988 h -4.00027 v -1.99988 h -0.74982 v 5.49992 h -1.99988 v -5.49992 h -3.25045 v 1.99988 h -3.99976 v -1.99988 h -0.74982 v 5.49992 h -2.0004 v -5.49992 h -3.24993 v 1.99988 h -3.99975 v -1.99988 h -0.75034 v 5.49992 h -1.99988 v -5.49992 h -3.24993 v 1.99988 h -3.99976 v -1.99988 h -0.75034 v 5.49992 h -1.99988 v -5.49992 h -3.24993 v 1.99988 h -4.00027 v -1.99988 h -0.74983 v 5.49992 h -1.99987 v -5.49992 h -3.24994 v 1.99988 h -4.00027 v -1.99988 h -0.74982 v 5.49992 H 209.537 v -5.49992 h -3.24993 v 1.99988 h -4.00028 v -1.99988 z" />
      <path
         id="rect1-4-5-7"
         style="fill:none;stroke:#000000;stroke-width:0.1;stroke-dasharray:none;stroke-opacity:1"
         d="m 15,390.00001 v 9.99991 h 169.99996 v -9.99991 h -9.25008 v 1.99988 h -3.99976 v -1.99988 h -0.75034 v 5.49992 h -1.99988 v -5.49992 h -3.24993 v 1.99988 h -3.99975 v -1.99988 h -0.75035 v 5.49992 H 159 v -5.49992 h -3.24993 v 1.99988 h -4.00028 v -1.99988 h -0.74982 v 5.49992 h -1.99988 v -5.49992 h -3.24993 v 1.99988 h -4.00027 v -1.99988 h -0.74983 v 5.49992 h -1.99988 v -5.49992 h -3.24993 v 1.99988 h -4.00027 v -1.99988 h -0.74983 v 5.49992 h -2.00039 v -5.49992 h -3.24993 v 1.99988 h -3.99976 v -1.99988 h -0.74982 v 5.49992 h -2.0004 v -5.49992 h -3.24993 v 1.99988 h -3.99975 v -1.99988 h -0.75035 v 5.49992 h -1.99987 v -5.49992 h -3.24994 v 1.99988 h -4.00027 v -1.99988 h -0.74982 v 5.49992 h -1.99988 v -5.49992 h -3.24993 v 1.99988 h -4.00027 v -1.99988 h -0.74983 v 5.49992 h -1.99988 v -5.49992 H 85.7502 v 1.99988 h -4.00027 v -1.99988 h -0.74982 v 5.49992 h -1.99988 v -5.49992 h -3.25045 v 1.99988 h -3.99976 v -1.99988 H 71.0002 v 5.49992 h -2.0004 v -5.49992 h -3.24993 v 1.99988 h -3.99975 v -1.99988 h -0.75034 v 5.49992 H 58.9999 v -5.49992 h -3.24993 v 1.99988 h -3.99976 v -1.99988 h -0.75034 v 5.49992 h -1.99988 v -5.49992 h -3.24993 v 1.99988 h -4.00027 v -1.99988 h -0.74983 v 5.49992 h -1.99987 v -5.49992 h -3.24994 v 1.99988 h -4.00027 v -1.99988 h -0.74982 v 5.49992 h -1.99988 v -5.49992 h -3.24993 v 1.99988 h -4.00028 v -1.99988 z" />
      <path
         id="rect1-4-9-1-6"
         style="fill:none;stroke:#000000;stroke-width:0.1;stroke-dasharray:none;stroke-opacity:1"
         d="m 195.53682,390.00001 v 9.99991 h 169.99996 v -9.99991 h -9.25008 v 1.99988 h -3.99976 v -1.99988 h -0.75034 v 5.49992 h -1.99988 v -5.49992 h -3.24993 v 1.99988 h -3.99975 v -1.99988 h -0.75035 v 5.49992 h -1.99987 v -5.49992 h -3.24993 v 1.99988 h -4.00028 v -1.99988 h -0.74982 v 5.49992 h -1.99988 v -5.49992 h -3.24993 v 1.99988 h -4.00027 v -1.99988 h -0.74983 v 5.49992 H 319.537 v -5.49992 h -3.24993 v 1.99988 h -4.00027 v -1.99988 h -0.74983 v 5.49992 h -2.00039 v -5.49992 h -3.24993 v 1.99988 h -3.99976 v -1.99988 h -0.74982 v 5.49992 h -2.0004 v -5.49992 h -3.24993 v 1.99988 h -3.99975 v -1.99988 h -0.75035 v 5.49992 h -1.99987 v -5.49992 h -3.24994 v 1.99988 h -4.00027 v -1.99988 h -0.74982 v 5.49992 h -1.99988 v -5.49992 h -3.24993 v 1.99988 h -4.00027 v -1.99988 h -0.74983 v 5.49992 h -1.99988 v -5.49992 h -3.24993 v 1.99988 h -4.00027 v -1.99988 h -0.74982 v 5.49992 h -1.99988 v -5.49992 h -3.25045 v 1.99988 h -3.99976 v -1.99988 h -0.74982 v 5.49992 h -2.0004 v -5.49992 h -3.24993 v 1.99988 h -3.99975 v -1.99988 h -0.75034 v 5.49992 h -1.99988 v -5.49992 h -3.24993 v 1.99988 h -3.99976 v -1.99988 h -0.75034 v 5.49992 h -1.99988 v -5.49992 h -3.24993 v 1.99988 h -4.00027 v -1.99988 h -0.74983 v 5.49992 h -1.99987 v -5.49992 h -3.24994 v 1.99988 h -4.00027 v -1.99988 h -0.74982 v 5.49992 H 209.537 v -5.49992 h -3.24993 v 1.99988 h -4.00028 v -1.99988 z" />
      <path
         id="rect1-4-7-8"
         style="fill:none;stroke:#000000;stroke-width:0.1;stroke-dasharray:none;stroke-opacity:1"
         d="m 15,405.0001 v 9.99991 h 169.99996 v -9.99991 h -9.25008 v 1.99988 h -3.99976 v -1.99988 h -0.75034 v 5.49992 h -1.99988 v -5.49992 h -3.24993 v 1.99988 h -3.99975 v -1.99988 h -0.75035 v 5.49992 H 159 v -5.49992 h -3.24993 v 1.99988 h -4.00028 v -1.99988 h -0.74982 v 5.49992 h -1.99988 v -5.49992 h -3.24993 v 1.99988 h -4.00027 v -1.99988 h -0.74983 v 5.49992 h -1.99988 v -5.49992 h -3.24993 v 1.99988 h -4.00027 v -1.99988 h -0.74983 v 5.49992 h -2.00039 v -5.49992 h -3.24993 v 1.99988 h -3.99976 v -1.99988 h -0.74982 v 5.49992 h -2.0004 v -5.49992 h -3.24993 v 1.99988 h -3.99975 v -1.99988 h -0.75035 v 5.49992 h -1.99987 v -5.49992 h -3.24994 v 1.99988 h -4.00027 v -1.99988 h -0.74982 v 5.49992 h -1.99988 v -5.49992 h -3.24993 v 1.99988 h -4.00027 v -1.99988 h -0.74983 v 5.49992 H 89.00013 V 405.0001 H 85.7502 v 1.99988 h -4.00027 v -1.99988 h -0.74982 v 5.49992 h -1.99988 v -5.49992 h -3.25045 v 1.99988 H 71.75002 V 405.0001 H 71.0002 v 5.49992 h -2.0004 v -5.49992 h -3.24993 v 1.99988 h -3.99975 v -1.99988 h -0.75034 v 5.49992 H 58.9999 v -5.49992 h -3.24993 v 1.99988 h -3.99976 v -1.99988 h -0.75034 v 5.49992 h -1.99988 v -5.49992 h -3.24993 v 1.99988 h -4.00027 v -1.99988 h -0.74983 v 5.49992 h -1.99987 v -5.49992 h -3.24994 v 1.99988 h -4.00027 v -1.99988 h -0.74982 v 5.49992 h -1.99988 v -5.49992 h -3.24993 v 1.99988 h -4.00028 v -1.99988 z" />
      <path
         id="rect1-4-9-6-5"
         style="fill:none;stroke:#000000;stroke-width:0.1;stroke-dasharray:none;stroke-opacity:1"
         d="m 195.53682,405.0001 v 9.99991 h 169.99996 v -9.99991 h -9.25008 v 1.99988 h -3.99976 v -1.99988 h -0.75034 v 5.49992 h -1.99988 v -5.49992 h -3.24993 v 1.99988 h -3.99975 v -1.99988 h -0.75035 v 5.49992 h -1.99987 v -5.49992 h -3.24993 v 1.99988 h -4.00028 v -1.99988 h -0.74982 v 5.49992 h -1.99988 v -5.49992 h -3.24993 v 1.99988 h -4.00027 v -1.99988 h -0.74983 v 5.49992 H 319.537 v -5.49992 h -3.24993 v 1.99988 h -4.00027 v -1.99988 h -0.74983 v 5.49992 h -2.00039 v -5.49992 h -3.24993 v 1.99988 h -3.99976 v -1.99988 h -0.74982 v 5.49992 h -2.0004 v -5.49992 h -3.24993 v 1.99988 h -3.99975 v -1.99988 h -0.75035 v 5.49992 h -1.99987 v -5.49992 h -3.24994 v 1.99988 h -4.00027 v -1.99988 h -0.74982 v 5.49992 h -1.99988 v -5.49992 h -3.24993 v 1.99988 h -4.00027 v -1.99988 h -0.74983 v 5.49992 h -1.99988 v -5.49992 h -3.24993 v 1.99988 h -4.00027 v -1.99988 h -0.74982 v 5.49992 h -1.99988 v -5.49992 h -3.25045 v 1.99988 h -3.99976 v -1.99988 h -0.74982 v 5.49992 h -2.0004 v -5.49992 h -3.24993 v 1.99988 h -3.99975 v -1.99988 h -0.75034 v 5.49992 h -1.99988 v -5.49992 h -3.24993 v 1.99988 h -3.99976 v -1.99988 h -0.75034 v 5.49992 h -1.99988 v -5.49992 h -3.24993 v 1.99988 h -4.00027 v -1.99988 h -0.74983 v 5.49992 h -1.99987 v -5.49992 h -3.24994 v 1.99988 h -4.00027 v -1.99988 h -0.74982 v 5.49992 H 209.537 v -5.49992 h -3.24993 v 1.99988 h -4.00028 v -1.99988 z" />
      <path
         id="rect1-4-5-6-2"
         style="fill:none;stroke:#000000;stroke-width:0.1;stroke-dasharray:none;stroke-opacity:1"
         d="m 15,420.00001 v 9.99991 h 169.99996 v -9.99991 h -9.25008 v 1.99988 h -3.99976 v -1.99988 h -0.75034 v 5.49992 h -1.99988 v -5.49992 h -3.24993 v 1.99988 h -3.99975 v -1.99988 h -0.75035 v 5.49992 H 159 v -5.49992 h -3.24993 v 1.99988 h -4.00028 v -1.99988 h -0.74982 v 5.49992 h -1.99988 v -5.49992 h -3.24993 v 1.99988 h -4.00027 v -1.99988 h -0.74983 v 5.49992 h -1.99988 v -5.49992 h -3.24993 v 1.99988 h -4.00027 v -1.99988 h -0.74983 v 5.49992 h -2.00039 v -5.49992 h -3.24993 v 1.99988 h -3.99976 v -1.99988 h -0.74982 v 5.49992 h -2.0004 v -5.49992 h -3.24993 v 1.99988 h -3.99975 v -1.99988 h -0.75035 v 5.49992 h -1.99987 v -5.49992 h -3.24994 v 1.99988 h -4.00027 v -1.99988 h -0.74982 v 5.49992 h -1.99988 v -5.49992 h -3.24993 v 1.99988 h -4.00027 v -1.99988 h -0.74983 v 5.49992 h -1.99988 v -5.49992 H 85.7502 v 1.99988 h -4.00027 v -1.99988 h -0.74982 v 5.49992 h -1.99988 v -5.49992 h -3.25045 v 1.99988 h -3.99976 v -1.99988 H 71.0002 v 5.49992 h -2.0004 v -5.49992 h -3.24993 v 1.99988 h -3.99975 v -1.99988 h -0.75034 v 5.49992 H 58.9999 v -5.49992 h -3.24993 v 1.99988 h -3.99976 v -1.99988 h -0.75034 v 5.49992 h -1.99988 v -5.49992 h -3.24993 v 1.99988 h -4.00027 v -1.99988 h -0.74983 v 5.49992 h -1.99987 v -5.49992 h -3.24994 v 1.99988 h -4.00027 v -1.99988 h -0.74982 v 5.49992 h -1.99988 v -5.49992 h -3.24993 v 1.99988 h -4.00028 v -1.99988 z" />
      <path
         id="rect1-4-9-1-5-2"
         style="fill:none;stroke:#000000;stroke-width:0.1;stroke-dasharray:none;stroke-opacity:1"
         d="m 195.53682,420.00001 v 9.99991 h 169.99996 v -9.99991 h -9.25008 v 1.99988 h -3.99976 v -1.99988 h -0.75034 v 5.49992 h -1.99988 v -5.49992 h -3.24993 v 1.99988 h -3.99975 v -1.99988 h -0.75035 v 5.49992 h -1.99987 v -5.49992 h -3.24993 v 1.99988 h -4.00028 v -1.99988 h -0.74982 v 5.49992 h -1.99988 v -5.49992 h -3.24993 v 1.99988 h -4.00027 v -1.99988 h -0.74983 v 5.49992 H 319.537 v -5.49992 h -3.24993 v 1.99988 h -4.00027 v -1.99988 h -0.74983 v 5.49992 h -2.00039 v -5.49992 h -3.24993 v 1.99988 h -3.99976 v -1.99988 h -0.74982 v 5.49992 h -2.0004 v -5.49992 h -3.24993 v 1.99988 h -3.99975 v -1.99988 h -0.75035 v 5.49992 h -1.99987 v -5.49992 h -3.24994 v 1.99988 h -4.00027 v -1.99988 h -0.74982 v 5.49992 h -1.99988 v -5.49992 h -3.24993 v 1.99988 h -4.00027 v -1.99988 h -0.74983 v 5.49992 h -1.99988 v -5.49992 h -3.24993 v 1.99988 h -4.00027 v -1.99988 h -0.74982 v 5.49992 h -1.99988 v -5.49992 h -3.25045 v 1.99988 h -3.99976 v -1.99988 h -0.74982 v 5.49992 h -2.0004 v -5.49992 h -3.24993 v 1.99988 h -3.99975 v -1.99988 h -0.75034 v 5.49992 h -1.99988 v -5.49992 h -3.24993 v 1.99988 h -3.99976 v -1.99988 h -0.75034 v 5.49992 h -1.99988 v -5.49992 h -3.24993 v 1.99988 h -4.00027 v -1.99988 h -0.74983 v 5.49992 h -1.99987 v -5.49992 h -3.24994 v 1.99988 h -4.00027 v -1.99988 h -0.74982 v 5.49992 H 209.537 v -5.49992 h -3.24993 v 1.99988 h -4.00028 v -1.99988 z" />
      <path
         id="rect1-4-3-1"
         style="fill:none;stroke:#000000;stroke-width:0.1;stroke-dasharray:none;stroke-opacity:1"
         d="m 15,435.0001 v 9.99991 h 169.99996 v -9.99991 h -9.25008 v 1.99988 h -3.99976 v -1.99988 h -0.75034 v 5.49992 h -1.99988 v -5.49992 h -3.24993 v 1.99988 h -3.99975 v -1.99988 h -0.75035 v 5.49992 H 159 v -5.49992 h -3.24993 v 1.99988 h -4.00028 v -1.99988 h -0.74982 v 5.49992 h -1.99988 v -5.49992 h -3.24993 v 1.99988 h -4.00027 v -1.99988 h -0.74983 v 5.49992 h -1.99988 v -5.49992 h -3.24993 v 1.99988 h -4.00027 v -1.99988 h -0.74983 v 5.49992 h -2.00039 v -5.49992 h -3.24993 v 1.99988 h -3.99976 v -1.99988 h -0.74982 v 5.49992 h -2.0004 v -5.49992 h -3.24993 v 1.99988 h -3.99975 v -1.99988 h -0.75035 v 5.49992 h -1.99987 v -5.49992 h -3.24994 v 1.99988 h -4.00027 v -1.99988 h -0.74982 v 5.49992 h -1.99988 v -5.49992 h -3.24993 v 1.99988 h -4.00027 v -1.99988 h -0.74983 v 5.49992 H 89.00013 V 435.0001 H 85.7502 v 1.99988 h -4.00027 v -1.99988 h -0.74982 v 5.49992 h -1.99988 v -5.49992 h -3.25045 v 1.99988 H 71.75002 V 435.0001 H 71.0002 v 5.49992 h -2.0004 v -5.49992 h -3.24993 v 1.99988 h -3.99975 v -1.99988 h -0.75034 v 5.49992 H 58.9999 v -5.49992 h -3.24993 v 1.99988 h -3.99976 v -1.99988 h -0.75034 v 5.49992 h -1.99988 v -5.49992 h -3.24993 v 1.99988 h -4.00027 v -1.99988 h -0.74983 v 5.49992 h -1.99987 v -5.49992 h -3.24994 v 1.99988 h -4.00027 v -1.99988 h -0.74982 v 5.49992 h -1.99988 v -5.49992 h -3.24993 v 1.99988 h -4.00028 v -1.99988 z" />
      <path
         id="rect1-4-9-4-6"
         style="fill:none;stroke:#000000;stroke-width:0.1;stroke-dasharray:none;stroke-opacity:1"
         d="m 195.53682,435.0001 v 9.99991 h 169.99996 v -9.99991 h -9.25008 v 1.99988 h -3.99976 v -1.99988 h -0.75034 v 5.49992 h -1.99988 v -5.49992 h -3.24993 v 1.99988 h -3.99975 v -1.99988 h -0.75035 v 5.49992 h -1.99987 v -5.49992 h -3.24993 v 1.99988 h -4.00028 v -1.99988 h -0.74982 v 5.49992 h -1.99988 v -5.49992 h -3.24993 v 1.99988 h -4.00027 v -1.99988 h -0.74983 v 5.49992 H 319.537 v -5.49992 h -3.24993 v 1.99988 h -4.00027 v -1.99988 h -0.74983 v 5.49992 h -2.00039 v -5.49992 h -3.24993 v 1.99988 h -3.99976 v -1.99988 h -0.74982 v 5.49992 h -2.0004 v -5.49992 h -3.24993 v 1.99988 h -3.99975 v -1.99988 h -0.75035 v 5.49992 h -1.99987 v -5.49992 h -3.24994 v 1.99988 h -4.00027 v -1.99988 h -0.74982 v 5.49992 h -1.99988 v -5.49992 h -3.24993 v 1.99988 h -4.00027 v -1.99988 h -0.74983 v 5.49992 h -1.99988 v -5.49992 h -3.24993 v 1.99988 h -4.00027 v -1.99988 h -0.74982 v 5.49992 h -1.99988 v -5.49992 h -3.25045 v 1.99988 h -3.99976 v -1.99988 h -0.74982 v 5.49992 h -2.0004 v -5.49992 h -3.24993 v 1.99988 h -3.99975 v -1.99988 h -0.75034 v 5.49992 h -1.99988 v -5.49992 h -3.24993 v 1.99988 h -3.99976 v -1.99988 h -0.75034 v 5.49992 h -1.99988 v -5.49992 h -3.24993 v 1.99988 h -4.00027 v -1.99988 h -0.74983 v 5.49992 h -1.99987 v -5.49992 h -3.24994 v 1.99988 h -4.00027 v -1.99988 h -0.74982 v 5.49992 H 209.537 v -5.49992 h -3.24993 v 1.99988 h -4.00028 v -1.99988 z" />
      <path
         id="rect1-4-5-2-9"
         style="fill:none;stroke:#000000;stroke-width:0.1;stroke-dasharray:none;stroke-opacity:1"
         d="m 15,450.00001 v 9.99991 h 169.99996 v -9.99991 h -9.25008 v 1.99988 h -3.99976 v -1.99988 h -0.75034 v 5.49992 h -1.99988 v -5.49992 h -3.24993 v 1.99988 h -3.99975 v -1.99988 h -0.75035 v 5.49992 H 159 v -5.49992 h -3.24993 v 1.99988 h -4.00028 v -1.99988 h -0.74982 v 5.49992 h -1.99988 v -5.49992 h -3.24993 v 1.99988 h -4.00027 v -1.99988 h -0.74983 v 5.49992 h -1.99988 v -5.49992 h -3.24993 v 1.99988 h -4.00027 v -1.99988 h -0.74983 v 5.49992 h -2.00039 v -5.49992 h -3.24993 v 1.99988 h -3.99976 v -1.99988 h -0.74982 v 5.49992 h -2.0004 v -5.49992 h -3.24993 v 1.99988 h -3.99975 v -1.99988 h -0.75035 v 5.49992 h -1.99987 v -5.49992 h -3.24994 v 1.99988 h -4.00027 v -1.99988 h -0.74982 v 5.49992 h -1.99988 v -5.49992 h -3.24993 v 1.99988 h -4.00027 v -1.99988 h -0.74983 v 5.49992 h -1.99988 v -5.49992 H 85.7502 v 1.99988 h -4.00027 v -1.99988 h -0.74982 v 5.49992 h -1.99988 v -5.49992 h -3.25045 v 1.99988 h -3.99976 v -1.99988 H 71.0002 v 5.49992 h -2.0004 v -5.49992 h -3.24993 v 1.99988 h -3.99975 v -1.99988 h -0.75034 v 5.49992 H 58.9999 v -5.49992 h -3.24993 v 1.99988 h -3.99976 v -1.99988 h -0.75034 v 5.49992 h -1.99988 v -5.49992 h -3.24993 v 1.99988 h -4.00027 v -1.99988 h -0.74983 v 5.49992 h -1.99987 v -5.49992 h -3.24994 v 1.99988 h -4.00027 v -1.99988 h -0.74982 v 5.49992 h -1.99988 v -5.49992 h -3.24993 v 1.99988 h -4.00028 v -1.99988 z" />
      <path
         id="rect1-4-9-1-1-6"
         style="fill:none;stroke:#000000;stroke-width:0.1;stroke-dasharray:none;stroke-opacity:1"
         d="m 195.53682,450.00001 v 9.99991 h 169.99996 v -9.99991 h -9.25008 v 1.99988 h -3.99976 v -1.99988 h -0.75034 v 5.49992 h -1.99988 v -5.49992 h -3.24993 v 1.99988 h -3.99975 v -1.99988 h -0.75035 v 5.49992 h -1.99987 v -5.49992 h -3.24993 v 1.99988 h -4.00028 v -1.99988 h -0.74982 v 5.49992 h -1.99988 v -5.49992 h -3.24993 v 1.99988 h -4.00027 v -1.99988 h -0.74983 v 5.49992 H 319.537 v -5.49992 h -3.24993 v 1.99988 h -4.00027 v -1.99988 h -0.74983 v 5.49992 h -2.00039 v -5.49992 h -3.24993 v 1.99988 h -3.99976 v -1.99988 h -0.74982 v 5.49992 h -2.0004 v -5.49992 h -3.24993 v 1.99988 h -3.99975 v -1.99988 h -0.75035 v 5.49992 h -1.99987 v -5.49992 h -3.24994 v 1.99988 h -4.00027 v -1.99988 h -0.74982 v 5.49992 h -1.99988 v -5.49992 h -3.24993 v 1.99988 h -4.00027 v -1.99988 h -0.74983 v 5.49992 h -1.99988 v -5.49992 h -3.24993 v 1.99988 h -4.00027 v -1.99988 h -0.74982 v 5.49992 h -1.99988 v -5.49992 h -3.25045 v 1.99988 h -3.99976 v -1.99988 h -0.74982 v 5.49992 h -2.0004 v -5.49992 h -3.24993 v 1.99988 h -3.99975 v -1.99988 h -0.75034 v 5.49992 h -1.99988 v -5.49992 h -3.24993 v 1.99988 h -3.99976 v -1.99988 h -0.75034 v 5.49992 h -1.99988 v -5.49992 h -3.24993 v 1.99988 h -4.00027 v -1.99988 h -0.74983 v 5.49992 h -1.99987 v -5.49992 h -3.24994 v 1.99988 h -4.00027 v -1.99988 h -0.74982 v 5.49992 H 209.537 v -5.49992 h -3.24993 v 1.99988 h -4.00028 v -1.99988 z" />
      <path
         id="rect1-4-75-8"
         style="fill:none;stroke:#000000;stroke-width:0.1;stroke-dasharray:none;stroke-opacity:1"
         d="m 15.00003,465.00001 v 9.99991 H 185 v -9.99991 h -9.25008 v 1.99988 h -3.99976 v -1.99988 h -0.75034 v 5.49992 h -1.99988 v -5.49992 h -3.24993 v 1.99988 h -3.99975 v -1.99988 h -0.75035 v 5.49992 h -1.99987 v -5.49992 h -3.24993 v 1.99988 h -4.00028 v -1.99988 h -0.74982 v 5.49992 h -1.99988 v -5.49992 h -3.24993 v 1.99988 h -4.00027 v -1.99988 h -0.74983 v 5.49992 h -1.99988 v -5.49992 h -3.24993 v 1.99988 h -4.00027 v -1.99988 h -0.74983 v 5.49992 h -2.00039 v -5.49992 h -3.24993 v 1.99988 h -3.99976 v -1.99988 h -0.74982 v 5.49992 h -2.0004 v -5.49992 h -3.24993 v 1.99988 h -3.99975 v -1.99988 h -0.75035 v 5.49992 h -1.99987 v -5.49992 h -3.24994 v 1.99988 h -4.00027 v -1.99988 h -0.74982 v 5.49992 h -1.99989 v -5.49992 h -3.24993 v 1.99988 h -4.00027 v -1.99988 h -0.74983 v 5.49992 h -1.99988 v -5.49992 h -3.24993 v 1.99988 h -4.00027 v -1.99988 h -0.74982 v 5.49992 h -1.99988 v -5.49992 h -3.25045 v 1.99988 h -3.99976 v -1.99988 h -0.74982 v 5.49992 h -2.0004 v -5.49992 H 65.7499 v 1.99988 h -3.99975 v -1.99988 h -0.75034 v 5.49992 h -1.99988 v -5.49992 H 55.75 v 1.99988 h -3.99976 v -1.99988 H 50.9999 v 5.49992 h -1.99988 v -5.49992 h -3.24993 v 1.99988 h -4.00027 v -1.99988 h -0.74983 v 5.49992 h -1.99987 v -5.49992 h -3.24994 v 1.99988 h -4.00027 v -1.99988 h -0.74982 v 5.49992 h -1.99988 v -5.49992 h -3.24993 v 1.99988 H 21.75 v -1.99988 z" />
      <path
         id="rect1-4-9-2-3"
         style="fill:none;stroke:#000000;stroke-width:0.1;stroke-dasharray:none;stroke-opacity:1"
         d="m 195.53686,465.00001 v 9.99991 h 169.99996 v -9.99991 h -9.25008 v 1.99988 h -3.99976 v -1.99988 h -0.75034 v 5.49992 h -1.99988 v -5.49992 h -3.24993 v 1.99988 h -3.99975 v -1.99988 h -0.75035 v 5.49992 h -1.99987 v -5.49992 h -3.24993 v 1.99988 h -4.00028 v -1.99988 h -0.74982 v 5.49992 h -1.99988 v -5.49992 h -3.24993 v 1.99988 h -4.00027 v -1.99988 h -0.74983 v 5.49992 h -1.99988 v -5.49992 h -3.24993 v 1.99988 h -4.00027 v -1.99988 h -0.74983 v 5.49992 h -2.00039 v -5.49992 h -3.24993 v 1.99988 h -3.99976 v -1.99988 h -0.74982 v 5.49992 h -2.0004 v -5.49992 h -3.24993 v 1.99988 h -3.99975 v -1.99988 h -0.75035 v 5.49992 h -1.99987 v -5.49992 h -3.24994 v 1.99988 h -4.00027 v -1.99988 h -0.74982 v 5.49992 h -1.99988 v -5.49992 h -3.24993 v 1.99988 h -4.00027 v -1.99988 h -0.74983 v 5.49992 h -1.99988 v -5.49992 h -3.24993 v 1.99988 h -4.00027 v -1.99988 h -0.74982 v 5.49992 h -1.99988 v -5.49992 h -3.25045 v 1.99988 h -3.99976 v -1.99988 h -0.74982 v 5.49992 h -2.0004 v -5.49992 h -3.24993 v 1.99988 h -3.99975 v -1.99988 h -0.75034 v 5.49992 h -1.99988 v -5.49992 h -3.24993 v 1.99988 h -3.99976 v -1.99988 h -0.75034 v 5.49992 h -1.99988 v -5.49992 h -3.24993 v 1.99988 h -4.00027 v -1.99988 h -0.74983 v 5.49992 h -1.99987 v -5.49992 h -3.24994 v 1.99988 h -4.00027 v -1.99988 h -0.74982 v 5.49992 h -1.99988 v -5.49992 h -3.24993 v 1.99988 h -4.00028 v -1.99988 z" />
      <path
         id="rect1-4-5-4-7"
         style="fill:none;stroke:#000000;stroke-width:0.1;stroke-dasharray:none;stroke-opacity:1"
         d="m 15.00003,479.99992 v 9.99991 H 185 v -9.99991 h -9.25008 v 1.99988 h -3.99976 v -1.99988 h -0.75034 v 5.49992 h -1.99988 v -5.49992 h -3.24993 v 1.99988 h -3.99975 v -1.99988 h -0.75035 v 5.49992 h -1.99987 v -5.49992 h -3.24993 v 1.99988 h -4.00028 v -1.99988 h -0.74982 v 5.49992 h -1.99988 v -5.49992 h -3.24993 v 1.99988 h -4.00027 v -1.99988 h -0.74983 v 5.49992 h -1.99988 v -5.49992 h -3.24993 v 1.99988 h -4.00027 v -1.99988 h -0.74983 v 5.49992 h -2.00039 v -5.49992 h -3.24993 v 1.99988 h -3.99976 v -1.99988 h -0.74982 v 5.49992 h -2.0004 v -5.49992 h -3.24993 v 1.99988 h -3.99975 v -1.99988 h -0.75035 v 5.49992 h -1.99987 v -5.49992 h -3.24994 v 1.99988 h -4.00027 v -1.99988 h -0.74982 v 5.49992 h -1.99989 v -5.49992 h -3.24993 v 1.99988 h -4.00027 v -1.99988 h -0.74983 v 5.49992 h -1.99988 v -5.49992 h -3.24993 v 1.99988 h -4.00027 v -1.99988 h -0.74982 v 5.49992 h -1.99988 v -5.49992 h -3.25045 v 1.99988 h -3.99976 v -1.99988 h -0.74982 v 5.49992 h -2.0004 v -5.49992 H 65.7499 v 1.99988 h -3.99975 v -1.99988 h -0.75034 v 5.49992 h -1.99988 v -5.49992 H 55.75 v 1.99988 h -3.99976 v -1.99988 H 50.9999 v 5.49992 h -1.99988 v -5.49992 h -3.24993 v 1.99988 h -4.00027 v -1.99988 h -0.74983 v 5.49992 h -1.99987 v -5.49992 h -3.24994 v 1.99988 h -4.00027 v -1.99988 h -0.74982 v 5.49992 h -1.99988 v -5.49992 h -3.24993 v 1.99988 H 21.75 v -1.99988 z" />
      <path
         id="rect1-4-9-1-7-6"
         style="fill:none;stroke:#000000;stroke-width:0.1;stroke-dasharray:none;stroke-opacity:1"
         d="m 195.53686,479.99992 v 9.99991 h 169.99996 v -9.99991 h -9.25008 v 1.99988 h -3.99976 v -1.99988 h -0.75034 v 5.49992 h -1.99988 v -5.49992 h -3.24993 v 1.99988 h -3.99975 v -1.99988 h -0.75035 v 5.49992 h -1.99987 v -5.49992 h -3.24993 v 1.99988 h -4.00028 v -1.99988 h -0.74982 v 5.49992 h -1.99988 v -5.49992 h -3.24993 v 1.99988 h -4.00027 v -1.99988 h -0.74983 v 5.49992 h -1.99988 v -5.49992 h -3.24993 v 1.99988 h -4.00027 v -1.99988 h -0.74983 v 5.49992 h -2.00039 v -5.49992 h -3.24993 v 1.99988 h -3.99976 v -1.99988 h -0.74982 v 5.49992 h -2.0004 v -5.49992 h -3.24993 v 1.99988 h -3.99975 v -1.99988 h -0.75035 v 5.49992 h -1.99987 v -5.49992 h -3.24994 v 1.99988 h -4.00027 v -1.99988 h -0.74982 v 5.49992 h -1.99988 v -5.49992 h -3.24993 v 1.99988 h -4.00027 v -1.99988 h -0.74983 v 5.49992 h -1.99988 v -5.49992 h -3.24993 v 1.99988 h -4.00027 v -1.99988 h -0.74982 v 5.49992 h -1.99988 v -5.49992 h -3.25045 v 1.99988 h -3.99976 v -1.99988 h -0.74982 v 5.49992 h -2.0004 v -5.49992 h -3.24993 v 1.99988 h -3.99975 v -1.99988 h -0.75034 v 5.49992 h -1.99988 v -5.49992 h -3.24993 v 1.99988 h -3.99976 v -1.99988 h -0.75034 v 5.49992 h -1.99988 v -5.49992 h -3.24993 v 1.99988 h -4.00027 v -1.99988 h -0.74983 v 5.49992 h -1.99987 v -5.49992 h -3.24994 v 1.99988 h -4.00027 v -1.99988 h -0.74982 v 5.49992 h -1.99988 v -5.49992 h -3.24993 v 1.99988 h -4.00028 v -1.99988 z" />
    </g>
  </g>
</svg>
